<svg width="138" height="143" viewBox="0 0 138 143" fill="none" xmlns="http://www.w3.org/2000/svg">
<path d="M69 0.000162601C66.0545 0.000162601 63.6667 2.38798 63.6667 5.3335C63.6667 8.27901 66.0545 10.6668 69 10.6668C71.9455 10.6668 74.3333 8.27901 74.3333 5.3335C74.3333 2.38798 71.9455 0.000162601 69 0.000162601ZM69 132C66.0545 132 63.6667 134.388 63.6667 137.333C63.6667 140.279 66.0545 142.667 69 142.667C71.9455 142.667 74.3333 140.279 74.3333 137.333C74.3333 134.388 71.9455 132 69 132ZM68 5.3335V137.333H70V5.3335H68Z" fill="black"/>
</svg>
