<svg width="307" height="77" viewBox="0 0 307 77" fill="none" xmlns="http://www.w3.org/2000/svg">
<path fill-rule="evenodd" clip-rule="evenodd" d="M283.767 21.4865C283.51 21.4229 283.381 21.3911 283.154 21.2088L266.242 6.9399C265.916 6.607 265.747 6.18709 265.865 5.71192C265.982 5.23675 266.327 4.94392 266.771 4.80165L288.385 0.0638972C288.829 -0.0783743 289.214 0.0169371 289.541 0.349832L306.301 14.4914C306.848 14.7546 307.107 15.2772 306.958 15.8785L303.138 31.3214C302.961 32.0342 302.33 32.3822 301.56 32.1916C300.789 32.001 300.393 31.3987 300.569 30.686L303.906 17.1992L284.31 21.4947C284.152 21.5818 284.023 21.55 283.767 21.4865ZM283.179 23.8623C283.821 24.0211 284.492 24.0612 285.094 23.8319L297.461 21.2185L296.314 25.8514C295.733 28.2016 292.613 29.8209 288.728 30.2639L288.845 52.8976C288.893 57.6055 287.932 61.7609 285.962 65.3639C283.993 68.967 281.231 71.7773 277.676 73.795C274.121 75.8127 269.989 76.8215 265.281 76.8215C257.595 76.8215 251.662 74.8999 247.482 71.0567C243.351 67.2135 241.285 61.5207 241.285 53.9785V24.8662H255.697V53.2579C255.697 57.1491 256.586 59.9354 258.363 61.6168C260.189 63.2982 262.519 64.1389 265.353 64.1389C268.332 64.1389 270.638 63.2262 272.271 61.4006C273.952 59.5751 274.769 56.5726 274.721 52.3931L274.585 26.4358C271.771 24.3087 270.093 21.6728 270.631 19.4973L271.777 14.8644L281.499 22.9423C281.924 23.4258 282.537 23.7034 283.179 23.8623ZM47.4876 24.8662L45.3978 37.4046H30.4093V76.0288H15.9973V37.4046H0V24.8662H47.4876ZM57.3424 76.8215C52.9227 76.8215 49.5599 75.3563 47.2539 72.4258C44.9961 69.4954 43.8911 65.2439 43.9392 59.6712L44.0833 38.99H57.4865L57.3424 58.7344C57.3424 62.4815 58.6635 64.3551 61.3057 64.3551C62.5067 64.3551 63.5876 63.9948 64.5484 63.2742C65.5572 62.5056 66.4219 61.1845 67.1425 59.3109C67.8631 57.4373 68.4396 54.8672 68.872 51.6005C69.3043 48.2857 69.5445 44.0822 69.5926 38.99H82.5634V76.0288H69.5205L70.2411 69.1111C68.7999 71.465 66.9744 73.3386 64.7645 74.7318C62.6027 76.1249 60.1287 76.8215 57.3424 76.8215ZM107.848 76.8215C102.948 76.8215 99.1047 75.5004 96.3184 72.8582C93.5321 70.168 92.1629 66.661 92.211 62.3374L92.4272 50.0152H86.5182V38.99H92.6433L92.7875 31.4957H106.047L105.902 38.99H117V50.0152H105.758L105.614 60.7521C105.566 62.2413 105.95 63.3943 106.767 64.211C107.632 64.9796 108.809 65.3639 110.298 65.3639C111.307 65.3639 112.316 65.2439 113.325 65.0036C114.333 64.7154 115.366 64.211 116.423 63.4904L120.17 73.5788C118.969 74.5876 117.312 75.3803 115.198 75.9568C113.084 76.5333 110.634 76.8215 107.848 76.8215ZM140.877 38.4855C144.865 38.4855 148.3 39.2302 151.182 40.7194C154.064 42.2087 156.274 44.3224 157.812 47.0607C159.397 49.799 160.19 53.0417 160.19 56.7888C160.19 60.632 159.325 64.0669 157.595 67.0934C155.866 70.1199 153.416 72.4979 150.245 74.2273C147.123 75.9568 143.448 76.8215 139.22 76.8215C133.263 76.8215 128.579 75.1881 125.168 71.9214C121.757 68.6067 120.052 64.1389 120.052 58.5182C120.052 54.675 120.917 51.2402 122.646 48.2137C124.376 45.1871 126.802 42.8091 129.924 41.0797C133.047 39.3503 136.698 38.4855 140.877 38.4855ZM139.869 65.2919C141.838 65.2919 143.424 64.5473 144.625 63.058C145.826 61.5207 146.426 59.5031 146.426 57.005C146.426 54.7951 145.874 53.0897 144.769 51.8887C143.712 50.6397 142.271 50.0152 140.445 50.0152C138.427 50.0152 136.818 50.7598 135.617 52.249C134.416 53.7383 133.816 55.7559 133.816 58.3021C133.816 60.5119 134.344 62.2413 135.401 63.4904C136.458 64.6914 137.947 65.2919 139.869 65.2919ZM192.935 52.0328C191.878 51.5524 190.629 51.3122 189.188 51.3122C185.393 51.3122 182.775 53.3059 181.333 57.2932C179.892 61.2805 179.172 67.5258 179.172 76.0288H165.841V51.9608L165.696 38.99H179.028L178.451 48.5019C179.604 45.043 181.261 42.5209 183.423 40.9356C185.585 39.3022 187.987 38.4855 190.629 38.4855C191.446 38.4855 192.215 38.5336 192.935 38.6297C193.704 38.7257 194.52 38.9179 195.385 39.2061L192.935 52.0328ZM216.885 76.0288V65.0757H195.483V55.6358L220.56 24.7221H230.288V54.7711H237.494V65.0757H230.288V76.0288H216.885ZM208.31 54.7711H216.885V44.2504L208.31 54.7711Z" fill="white"/>
</svg>
