<svg width="325" height="29" viewBox="0 0 325 29" fill="none" xmlns="http://www.w3.org/2000/svg">
<path d="M14.3333 14.5C14.3333 15.9728 15.5272 17.1667 17 17.1667C18.4728 17.1667 19.6667 15.9728 19.6667 14.5C19.6667 13.0272 18.4728 11.8333 17 11.8333C15.5272 11.8333 14.3333 13.0272 14.3333 14.5ZM305.333 14.5C305.333 15.9728 306.527 17.1667 308 17.1667C309.473 17.1667 310.667 15.9728 310.667 14.5C310.667 13.0273 309.473 11.8334 308 11.8334C306.527 11.8334 305.333 13.0273 305.333 14.5ZM17 15L308 15L308 14L17 14L17 15Z" fill="black"/>
</svg>
