<svg width="380" height="120" viewBox="0 0 380 120" fill="none" xmlns="http://www.w3.org/2000/svg">
<rect width="380" height="120" fill="#3B3BB3"/>
<path d="M29.2322 77.7678C30.2085 78.7441 31.7915 78.7441 32.7678 77.7678L48.6777 61.8579C49.654 60.8816 49.654 59.2986 48.6777 58.3223C47.7014 57.346 46.1184 57.346 45.1421 58.3223L31 72.4645L16.8579 58.3223C15.8816 57.346 14.2986 57.346 13.3223 58.3223C12.346 59.2986 12.346 60.8816 13.3223 61.8579L29.2322 77.7678ZM28.5 75L28.5 76L33.5 76L33.5 75L28.5 75Z" fill="white"/>
<path fill-rule="evenodd" clip-rule="evenodd" d="M347.53 38.4685C347.273 38.4051 347.145 38.3733 346.918 38.1911L330.021 23.9341C329.694 23.6015 329.526 23.1819 329.643 22.7072C329.761 22.2324 330.105 21.9398 330.549 21.7976L352.145 17.0638C352.589 16.9217 352.973 17.0169 353.3 17.3495L370.046 31.4793C370.593 31.7423 370.851 32.2645 370.702 32.8653L366.885 48.2953C366.709 49.0075 366.078 49.3552 365.308 49.1648C364.538 48.9743 364.143 48.3726 364.319 47.6604L367.653 34.1848L348.073 38.4768C347.915 38.5638 347.787 38.532 347.53 38.4685ZM346.943 40.8424C347.584 41.0011 348.255 41.0411 348.857 40.812L361.213 38.2009L360.067 42.8299C359.486 45.1781 356.369 46.7961 352.488 47.2387L352.604 69.8535C352.652 74.5575 351.692 78.7095 349.724 82.3095C347.756 85.9095 344.996 88.7175 341.444 90.7335C337.892 92.7495 333.764 93.7575 329.06 93.7575C321.38 93.7575 315.452 91.8375 311.276 87.9975C307.148 84.1575 305.084 78.4695 305.084 70.9335V41.8455H319.484V70.2135C319.484 74.1015 320.372 76.8855 322.148 78.5655C323.972 80.2455 326.3 81.0855 329.132 81.0855C332.108 81.0855 334.412 80.1735 336.044 78.3495C337.724 76.5255 338.54 73.5255 338.492 69.3495L338.356 43.4138C335.545 41.2884 333.868 38.6547 334.405 36.4811L335.551 31.852L345.264 39.9232C345.689 40.4063 346.301 40.6837 346.943 40.8424ZM111.448 41.8455L109.36 54.3735H94.384V92.9655H79.984V54.3735H64V41.8455H111.448ZM121.295 93.7575C116.879 93.7575 113.519 92.2935 111.215 89.3655C108.959 86.4375 107.855 82.1895 107.903 76.6215L108.047 55.9575H121.439L121.295 75.6855C121.295 79.4295 122.615 81.3015 125.255 81.3015C126.455 81.3015 127.535 80.9415 128.495 80.2215C129.503 79.4535 130.367 78.1335 131.087 76.2615C131.807 74.3895 132.383 71.8215 132.815 68.5575C133.247 65.2455 133.487 61.0455 133.535 55.9575H146.495V92.9655H133.463L134.183 86.0535C132.743 88.4055 130.919 90.2775 128.711 91.6695C126.551 93.0615 124.079 93.7575 121.295 93.7575ZM171.758 93.7575C166.862 93.7575 163.022 92.4375 160.238 89.7975C157.454 87.1095 156.086 83.6055 156.134 79.2855L156.35 66.9735H150.446V55.9575H156.566L156.71 48.4695H169.958L169.814 55.9575H180.902V66.9735H169.67L169.526 77.7015C169.478 79.1895 169.862 80.3415 170.678 81.1575C171.542 81.9255 172.718 82.3095 174.206 82.3095C175.214 82.3095 176.222 82.1895 177.23 81.9495C178.238 81.6615 179.27 81.1575 180.326 80.4375L184.07 90.5175C182.87 91.5255 181.214 92.3175 179.102 92.8935C176.99 93.4695 174.542 93.7575 171.758 93.7575ZM204.76 55.4535C208.744 55.4535 212.176 56.1975 215.056 57.6855C217.936 59.1735 220.144 61.2855 221.68 64.0215C223.264 66.7575 224.056 69.9975 224.056 73.7415C224.056 77.5815 223.192 81.0135 221.464 84.0375C219.736 87.0615 217.288 89.4375 214.12 91.1655C211 92.8935 207.328 93.7575 203.104 93.7575C197.152 93.7575 192.472 92.1255 189.064 88.8615C185.656 85.5495 183.952 81.0855 183.952 75.4695C183.952 71.6295 184.816 68.1975 186.544 65.1735C188.272 62.1495 190.696 59.7735 193.816 58.0455C196.936 56.3175 200.584 55.4535 204.76 55.4535ZM203.752 82.2375C205.72 82.2375 207.304 81.4935 208.504 80.0055C209.704 78.4695 210.304 76.4535 210.304 73.9575C210.304 71.7495 209.752 70.0455 208.648 68.8455C207.592 67.5975 206.152 66.9735 204.328 66.9735C202.312 66.9735 200.704 67.7175 199.504 69.2055C198.304 70.6935 197.704 72.7095 197.704 75.2535C197.704 77.4615 198.232 79.1895 199.288 80.4375C200.344 81.6375 201.832 82.2375 203.752 82.2375ZM256.774 68.9895C255.718 68.5095 254.47 68.2695 253.03 68.2695C249.238 68.2695 246.622 70.2615 245.182 74.2455C243.742 78.2295 243.022 84.4695 243.022 92.9655H229.702V68.9175L229.558 55.9575H242.878L242.302 65.4615C243.454 62.0055 245.11 59.4855 247.27 57.9015C249.43 56.2695 251.83 55.4535 254.47 55.4535C255.286 55.4535 256.054 55.5015 256.774 55.5975C257.542 55.6935 258.358 55.8855 259.222 56.1735L256.774 68.9895ZM280.704 92.9655V82.0215H259.32V72.5895L284.376 41.7015H294.096V71.7255H301.296V82.0215H294.096V92.9655H280.704ZM272.136 71.7255H280.704V61.2135L272.136 71.7255Z" fill="white"/>
</svg>
