<svg width="20" height="20" viewBox="0 0 20 20" fill="none" xmlns="http://www.w3.org/2000/svg">
<g clip-path="url(#clip0)">
<path d="M19.2366 10C19.2366 4.74946 14.9877 0.5 9.73657 0.5C4.48603 0.5 0.236572 4.74888 0.236572 10C0.236572 15.204 4.44994 19.5 9.73657 19.5C15.0015 19.5 19.2366 15.2279 19.2366 10ZM9.73657 1.61328C14.361 1.61328 18.1233 5.37553 18.1233 10C18.1233 11.6917 17.6201 13.3177 16.687 14.6949C12.9402 10.6645 6.5398 10.6572 2.7861 14.6949C1.853 13.3177 1.34985 11.6917 1.34985 10C1.34985 5.37553 5.11211 1.61328 9.73657 1.61328ZM3.48045 15.585C6.81189 11.8482 12.6621 11.8491 15.9925 15.585C12.6499 19.3246 6.8245 19.3258 3.48045 15.585Z" fill="#B5B6CD"/>
<path d="M9.73657 10.5566C11.5781 10.5566 13.0764 9.05835 13.0764 7.2168V6.10352C13.0764 4.26196 11.5781 2.76367 9.73657 2.76367C7.89502 2.76367 6.39673 4.26196 6.39673 6.10352V7.2168C6.39673 9.05835 7.89502 10.5566 9.73657 10.5566ZM7.51001 6.10352C7.51001 4.87572 8.50877 3.87695 9.73657 3.87695C10.9644 3.87695 11.9631 4.87572 11.9631 6.10352V7.2168C11.9631 8.4446 10.9644 9.44336 9.73657 9.44336C8.50877 9.44336 7.51001 8.4446 7.51001 7.2168V6.10352Z" fill="#B5B6CD"/>
</g>
<defs>
<clipPath id="clip0">
<rect width="19" height="19" fill="white" transform="translate(0.236572 0.5)"/>
</clipPath>
</defs>
</svg>
