<svg width="18" height="20" viewBox="0 0 18 20" fill="none" xmlns="http://www.w3.org/2000/svg">
<g clip-path="url(#clip0)">
<path d="M6.93745 6.66672H1.31245C0.58873 6.66672 0 6.01257 0 5.20828V1.45828C0 0.654144 0.58873 0 1.31245 0H6.93745C7.66132 0 8.25005 0.654144 8.25005 1.45828V5.20828C8.25005 6.01257 7.66132 6.66672 6.93745 6.66672ZM1.31245 1.25C1.20905 1.25 1.125 1.34338 1.125 1.45828V5.20828C1.125 5.32333 1.20905 5.41672 1.31245 5.41672H6.93745C7.041 5.41672 7.12505 5.32333 7.12505 5.20828V1.45828C7.12505 1.34338 7.041 1.25 6.93745 1.25H1.31245Z" fill="#B5B6CD"/>
<path d="M6.93745 20H1.31245C0.58873 20 0 19.3459 0 18.5417V9.79175C0 8.98746 0.58873 8.33331 1.31245 8.33331H6.93745C7.66132 8.33331 8.25005 8.98746 8.25005 9.79175V18.5417C8.25005 19.3459 7.66132 20 6.93745 20ZM1.31245 9.58331C1.20905 9.58331 1.125 9.6767 1.125 9.79175V18.5417C1.125 18.6566 1.20905 18.75 1.31245 18.75H6.93745C7.041 18.75 7.12505 18.6566 7.12505 18.5417V9.79175C7.12505 9.6767 7.041 9.58331 6.93745 9.58331H1.31245Z" fill="#B5B6CD"/>
<path d="M16.6876 20H11.0626C10.3387 20 9.75 19.3459 9.75 18.5417V14.7917C9.75 13.9875 10.3387 13.3333 11.0626 13.3333H16.6876C17.4113 13.3333 18 13.9875 18 14.7917V18.5417C18 19.3459 17.4113 20 16.6876 20V20ZM11.0626 14.5833C10.959 14.5833 10.875 14.6767 10.875 14.7917V18.5417C10.875 18.6566 10.959 18.75 11.0626 18.75H16.6876C16.791 18.75 16.875 18.6566 16.875 18.5417V14.7917C16.875 14.6767 16.791 14.5833 16.6876 14.5833H11.0626Z" fill="#B5B6CD"/>
<path d="M16.6876 11.6667H11.0626C10.3387 11.6667 9.75 11.0126 9.75 10.2083V1.45828C9.75 0.654144 10.3387 0 11.0626 0H16.6876C17.4113 0 18 0.654144 18 1.45828V10.2083C18 11.0126 17.4113 11.6667 16.6876 11.6667V11.6667ZM11.0626 1.25C10.959 1.25 10.875 1.34338 10.875 1.45828V10.2083C10.875 10.3233 10.959 10.4167 11.0626 10.4167H16.6876C16.791 10.4167 16.875 10.3233 16.875 10.2083V1.45828C16.875 1.34338 16.791 1.25 16.6876 1.25H11.0626Z" fill="#B5B6CD"/>
</g>
<defs>
<clipPath id="clip0">
<rect width="18" height="20" fill="white"/>
</clipPath>
</defs>
</svg>
