<svg width="232" height="248" viewBox="0 0 232 248" fill="none" xmlns="http://www.w3.org/2000/svg">
<g clip-path="url(#clip0)">
<path d="M146.617 140.694L46.7637 166.247C43.3766 167.109 39.7834 166.602 36.7725 164.835C33.7615 163.068 31.5787 160.187 30.7029 156.823L0.504792 40.2873C-0.363354 36.9214 0.147501 33.3507 1.92529 30.3586C3.70307 27.3664 6.6026 25.1973 9.98776 24.327L102.885 0.554581L126.662 11.1323L156.1 124.734C156.968 128.1 156.457 131.671 154.679 134.663C152.901 137.655 150.002 139.824 146.617 140.694V140.694Z" fill="#F2F2F2"/>
<path d="M10.934 27.9807C8.52333 28.6005 6.45851 30.1452 5.19251 32.2759C3.92651 34.4067 3.56272 36.9495 4.18095 39.3464L34.3791 155.882C35.0028 158.278 36.5572 160.33 38.7013 161.588C40.8455 162.846 43.4043 163.207 45.8163 162.593L145.669 137.04C148.08 136.421 150.145 134.876 151.411 132.745C152.677 130.614 153.04 128.072 152.422 125.675L123.441 13.8334L102.545 4.53743L10.934 27.9807Z" fill="white"/>
<path d="M126.408 11.7335L110.954 15.688C109.826 15.9767 108.628 15.8083 107.625 15.2197C106.622 14.6311 105.895 13.6706 105.605 12.5495L102.666 1.20704C102.653 1.15738 102.654 1.10513 102.67 1.05626C102.686 1.0074 102.715 0.963914 102.754 0.930784C102.794 0.897654 102.841 0.876224 102.893 0.868953C102.944 0.861682 102.996 0.868862 103.043 0.889672L126.45 11.2199C126.503 11.2429 126.546 11.2815 126.575 11.3302C126.604 11.3789 126.617 11.4354 126.613 11.4919C126.608 11.5483 126.586 11.6019 126.549 11.6452C126.512 11.6885 126.463 11.7193 126.408 11.7335V11.7335Z" fill="#F2F2F2"/>
<path d="M118.277 111.252L72.8158 122.886C72.5365 122.958 72.2458 122.974 71.9602 122.934C71.6747 122.893 71.3999 122.798 71.1515 122.652C70.9031 122.506 70.6861 122.313 70.5128 122.084C70.3394 121.855 70.2132 121.594 70.1413 121.317C70.0694 121.039 70.0532 120.75 70.0936 120.467C70.134 120.183 70.2303 119.91 70.377 119.663C70.5236 119.416 70.7177 119.2 70.9482 119.028C71.1788 118.856 71.4411 118.73 71.7205 118.659L117.182 107.025C117.461 106.954 117.752 106.938 118.038 106.978C118.323 107.018 118.598 107.114 118.846 107.26C119.095 107.405 119.312 107.598 119.485 107.827C119.658 108.056 119.785 108.317 119.857 108.595C119.929 108.872 119.945 109.161 119.904 109.445C119.864 109.729 119.768 110.002 119.621 110.249C119.474 110.495 119.28 110.711 119.05 110.883C118.819 111.056 118.557 111.181 118.277 111.252Z" fill="#CCCCCC"/>
<path d="M128.899 116.141L74.6643 130.019C74.1002 130.164 73.5015 130.079 73 129.785C72.4984 129.491 72.135 129.011 71.9897 128.45C71.8445 127.89 71.9293 127.295 72.2254 126.796C72.5216 126.298 73.0048 125.937 73.5689 125.792L127.804 111.913C128.368 111.77 128.966 111.854 129.467 112.149C129.968 112.443 130.331 112.923 130.476 113.483C130.622 114.043 130.537 114.638 130.241 115.136C129.946 115.635 129.463 115.996 128.899 116.141V116.141Z" fill="#CCCCCC"/>
<path d="M54.261 136.898C58.5481 136.898 62.0235 133.444 62.0235 129.184C62.0235 124.923 58.5481 121.47 54.261 121.47C49.9739 121.47 46.4985 124.923 46.4985 129.184C46.4985 133.444 49.9739 136.898 54.261 136.898Z" fill="#E6E6E6"/>
<path d="M113.444 91.0644L53.066 106.509C51.3211 106.954 49.4701 106.692 47.9191 105.782C46.368 104.872 45.2437 103.387 44.7927 101.654L32.1398 52.8079C31.6927 51.0739 31.956 49.2345 32.872 47.6931C33.788 46.1518 35.2818 45.0345 37.0257 44.5863L97.4033 29.1414C99.1482 28.6971 100.999 28.9588 102.55 29.8691C104.101 30.7793 105.226 32.2638 105.677 33.9968L118.329 82.8429C118.777 84.5769 118.513 86.4163 117.597 87.9576C116.681 89.4989 115.187 90.6163 113.444 91.0644Z" fill="white"/>
<path d="M113.444 91.0644L53.066 106.509C51.3211 106.954 49.4701 106.692 47.9191 105.782C46.368 104.872 45.2437 103.387 44.7927 101.654L32.1398 52.8079C31.6927 51.0739 31.956 49.2345 32.872 47.6931C33.788 46.1518 35.2818 45.0345 37.0257 44.5863L97.4033 29.1414C99.1482 28.6971 100.999 28.9588 102.55 29.8691C104.101 30.7793 105.226 32.2638 105.677 33.9968L118.329 82.8429C118.777 84.5769 118.513 86.4163 117.597 87.9576C116.681 89.4989 115.187 90.6163 113.444 91.0644ZM37.225 45.3556C35.6862 45.751 34.3682 46.7369 33.56 48.0969C32.7518 49.4569 32.5194 51.0799 32.9139 52.6099L45.5668 101.456C45.9647 102.985 46.9568 104.295 48.3253 105.098C49.6939 105.901 51.3271 106.132 52.8667 105.74L113.244 90.2952C114.783 89.8998 116.101 88.9139 116.909 87.5539C117.718 86.1939 117.95 84.5709 117.555 83.0409L104.903 34.1948C104.505 32.6657 103.512 31.3558 102.144 30.5527C100.775 29.7495 99.1422 29.5186 97.6025 29.9106L37.225 45.3556Z" fill="#E6E6E6"/>
<path d="M94.3402 45.5654L63.8685 53.3603C63.602 53.4342 63.3174 53.4048 63.0719 53.2781C62.8264 53.1514 62.6386 52.9368 62.5462 52.6777C62.5032 52.5424 62.4884 52.3998 62.5028 52.2585C62.5171 52.1173 62.5602 51.9805 62.6295 51.8564C62.6988 51.7323 62.7928 51.6235 62.9058 51.5367C63.0188 51.4499 63.1484 51.3869 63.2867 51.3515L94.3051 43.4168C95.5581 44.0478 95.2284 45.3382 94.3399 45.5655L94.3402 45.5654Z" fill="#F2F2F2"/>
<path d="M95.716 50.8769L65.2443 58.6718C64.9779 58.7457 64.6932 58.7163 64.4477 58.5896C64.2023 58.4629 64.0144 58.2483 63.9221 57.9892C63.8791 57.8539 63.8643 57.7113 63.8786 57.5701C63.893 57.4288 63.9361 57.292 64.0054 57.1679C64.0747 57.0438 64.1687 56.935 64.2817 56.8482C64.3946 56.7614 64.5243 56.6984 64.6626 56.663L95.6809 48.7284C96.9339 49.3593 96.6042 50.6497 95.7157 50.877L95.716 50.8769Z" fill="#F2F2F2"/>
<path d="M59.4404 63.3811L50.1407 65.76C49.837 65.8373 49.5148 65.7918 49.2448 65.6334C48.9749 65.4749 48.7792 65.2165 48.7007 64.9149L45.8757 54.0091C45.7978 53.7073 45.8437 53.3871 46.0031 53.1188C46.1625 52.8505 46.4226 52.6561 46.7261 52.5781L56.0258 50.1992C56.3295 50.1219 56.6517 50.1675 56.9217 50.3259C57.1916 50.4843 57.3873 50.7427 57.4659 51.0443L60.2909 61.95C60.3687 62.2519 60.3229 62.5721 60.1635 62.8403C60.004 63.1086 59.744 63.3031 59.4404 63.3811V63.3811Z" fill="#E6E6E6"/>
<path d="M98.4446 61.775L51.9391 73.6713C51.6727 73.7452 51.388 73.7159 51.1425 73.5892C50.8971 73.4625 50.7092 73.2479 50.6168 72.9888C50.5739 72.8535 50.5591 72.7108 50.5734 72.5696C50.5877 72.4284 50.6308 72.2916 50.7001 72.1675C50.7694 72.0434 50.8634 71.9346 50.9764 71.8478C51.0894 71.761 51.219 71.698 51.3573 71.6626L98.4098 59.6263C99.6628 60.2572 99.3331 61.5477 98.4446 61.7749L98.4446 61.775Z" fill="#F2F2F2"/>
<path d="M99.8209 67.088L53.3153 78.9844C53.0489 79.0583 52.7642 79.029 52.5188 78.9023C52.2733 78.7756 52.0855 78.561 51.9931 78.3019C51.9501 78.1665 51.9353 78.0239 51.9497 77.8827C51.964 77.7415 52.0071 77.6047 52.0764 77.4806C52.1457 77.3565 52.2397 77.2477 52.3527 77.1609C52.4657 77.0741 52.5953 77.0111 52.7336 76.9757L99.7861 64.9394C101.039 65.5703 100.709 66.8607 99.8209 67.088V67.088Z" fill="#F2F2F2"/>
<path d="M101.196 72.3976L54.6907 84.294C54.4243 84.3679 54.1396 84.3386 53.8942 84.2119C53.6487 84.0852 53.4608 83.8706 53.3685 83.6115C53.3255 83.4762 53.3107 83.3335 53.325 83.1923C53.3394 83.0511 53.3825 82.9143 53.4518 82.7902C53.5211 82.6661 53.6151 82.5573 53.7281 82.4705C53.8411 82.3837 53.9707 82.3207 54.109 82.2853L101.161 70.249C102.414 70.8799 102.085 72.1704 101.196 72.3976V72.3976Z" fill="#F2F2F2"/>
<path d="M102.572 77.7103L56.0669 89.6067C55.8005 89.6806 55.5158 89.6513 55.2704 89.5246C55.0249 89.3979 54.837 89.1833 54.7447 88.9242C54.7017 88.7889 54.6869 88.6462 54.7012 88.505C54.7155 88.3638 54.7587 88.227 54.828 88.1029C54.8972 87.9788 54.9913 87.87 55.1043 87.7832C55.2172 87.6964 55.3469 87.6334 55.4852 87.598L102.538 75.5617C103.791 76.1926 103.461 77.4831 102.572 77.7104L102.572 77.7103Z" fill="#F2F2F2"/>
<path d="M103.948 83.0203L57.4424 94.9167C57.176 94.9906 56.8913 94.9612 56.6458 94.8345C56.4004 94.7078 56.2125 94.4933 56.1201 94.2342C56.0771 94.0988 56.0624 93.9562 56.0767 93.815C56.091 93.6738 56.1341 93.537 56.2034 93.4129C56.2727 93.2888 56.3667 93.18 56.4797 93.0932C56.5927 93.0064 56.7223 92.9434 56.8606 92.908L103.913 80.8717C105.166 81.5026 104.836 82.793 103.948 83.0203V83.0203Z" fill="#F2F2F2"/>
<path d="M54.8337 131.888C54.6646 131.931 54.4859 131.919 54.3245 131.853L54.3145 131.849L52.1998 130.958C52.1017 130.917 52.0127 130.856 51.9379 130.781C51.8632 130.706 51.8042 130.616 51.7642 130.518C51.7243 130.42 51.7042 130.315 51.7052 130.209C51.7061 130.103 51.7281 129.998 51.7698 129.901C51.8115 129.803 51.8721 129.715 51.9482 129.641C52.0243 129.567 52.1143 129.508 52.2132 129.469C52.3121 129.429 52.4178 129.409 52.5244 129.41C52.6309 129.412 52.7362 129.433 52.8343 129.475L54.2045 130.054L56.0001 125.857C56.0418 125.759 56.1023 125.671 56.1782 125.597C56.2542 125.523 56.3441 125.464 56.4428 125.425C56.5415 125.385 56.647 125.365 56.7535 125.366C56.8599 125.367 56.965 125.389 57.063 125.431L57.0632 125.431L57.0525 125.458L57.0637 125.431C57.2614 125.514 57.4175 125.673 57.4978 125.871C57.5782 126.069 57.5762 126.291 57.4922 126.487L55.3797 131.423C55.3308 131.536 55.2561 131.637 55.1614 131.718C55.0668 131.798 54.9548 131.856 54.8341 131.887L54.8337 131.888Z" fill="white"/>
<path d="M184.916 185.103H81.8052C78.3086 185.099 74.9563 183.717 72.4838 181.26C70.0114 178.803 68.6206 175.472 68.6166 171.997V51.6593C68.6206 48.1846 70.0114 44.8533 72.4838 42.3963C74.9563 39.9392 78.3086 38.5572 81.8052 38.5532H177.733L198.104 54.6892V171.997C198.1 175.472 196.709 178.803 194.237 181.26C191.765 183.717 188.412 185.099 184.916 185.103V185.103Z" fill="#E6E6E6"/>
<path d="M81.8052 42.3262C79.3151 42.329 76.9279 43.3132 75.1672 45.0629C73.4065 46.8126 72.4161 49.1849 72.4133 51.6593V171.997C72.4161 174.471 73.4065 176.844 75.1672 178.593C76.9279 180.343 79.3151 181.327 81.8052 181.33H184.916C187.406 181.327 189.793 180.343 191.554 178.593C193.314 176.844 194.305 174.471 194.308 171.997V56.5068L176.405 42.3262H81.8052Z" fill="white"/>
<path d="M164.861 77.3171H117.916C117.333 77.3171 116.775 77.0872 116.363 76.6779C115.951 76.2686 115.72 75.7135 115.72 75.1346C115.72 74.5558 115.951 74.0007 116.363 73.5914C116.775 73.1821 117.333 72.9521 117.916 72.9521H164.861C165.443 72.9521 166.002 73.1821 166.414 73.5914C166.826 74.0007 167.057 74.5558 167.057 75.1346C167.057 75.7135 166.826 76.2686 166.414 76.6779C166.002 77.0872 165.443 77.3171 164.861 77.3171V77.3171Z" fill="#ED6F77"/>
<path d="M173.92 84.6831H117.916C117.334 84.6823 116.776 84.452 116.365 84.0428C115.954 83.6336 115.723 83.0789 115.723 82.5006C115.723 81.9223 115.954 81.3676 116.365 80.9584C116.776 80.5492 117.334 80.3189 117.916 80.3181H173.92C174.209 80.3177 174.495 80.3739 174.762 80.4834C175.028 80.5929 175.271 80.7536 175.475 80.9563C175.679 81.159 175.841 81.3997 175.952 81.6647C176.063 81.9297 176.119 82.2137 176.119 82.5006C176.119 82.7875 176.063 83.0715 175.952 83.3365C175.841 83.6015 175.679 83.8422 175.475 84.0449C175.271 84.2476 175.028 84.4083 174.762 84.5178C174.495 84.6273 174.209 84.6835 173.92 84.6831V84.6831Z" fill="#ED6F77"/>
<path d="M164.861 105.961H117.918C117.335 105.961 116.777 106.191 116.365 106.601C115.953 107.01 115.722 107.565 115.722 108.144C115.722 108.722 115.953 109.278 116.365 109.687C116.777 110.096 117.335 110.326 117.918 110.326H164.861C165.443 110.326 166.002 110.096 166.414 109.687C166.826 109.278 167.057 108.722 167.057 108.144C167.057 107.565 166.826 107.01 166.414 106.601C166.002 106.191 165.443 105.961 164.861 105.961V105.961Z" fill="#CCCCCC"/>
<path d="M173.921 113.329H117.918C117.335 113.329 116.777 113.558 116.365 113.968C115.953 114.377 115.722 114.932 115.722 115.511C115.722 116.09 115.953 116.645 116.365 117.054C116.777 117.463 117.335 117.693 117.918 117.693H173.921C174.503 117.693 175.062 117.463 175.474 117.054C175.886 116.645 176.117 116.09 176.117 115.511C176.117 114.932 175.886 114.377 175.474 113.968C175.062 113.558 174.503 113.329 173.921 113.329Z" fill="#CCCCCC"/>
<path d="M164.861 143.338H117.916C117.333 143.338 116.775 143.108 116.363 142.699C115.951 142.29 115.72 141.734 115.72 141.156C115.72 140.577 115.951 140.022 116.363 139.612C116.775 139.203 117.333 138.973 117.916 138.973H164.861C165.443 138.973 166.002 139.203 166.414 139.612C166.826 140.022 167.057 140.577 167.057 141.156C167.057 141.734 166.826 142.29 166.414 142.699C166.002 143.108 165.443 143.338 164.861 143.338V143.338Z" fill="#CCCCCC"/>
<path d="M173.92 150.704H117.916C117.334 150.703 116.776 150.473 116.365 150.064C115.954 149.655 115.723 149.1 115.723 148.522C115.723 147.943 115.954 147.389 116.365 146.979C116.776 146.57 117.334 146.34 117.916 146.339H173.92C174.209 146.339 174.495 146.395 174.762 146.504C175.028 146.614 175.271 146.775 175.475 146.977C175.679 147.18 175.841 147.421 175.952 147.686C176.063 147.951 176.119 148.235 176.119 148.522C176.119 148.808 176.063 149.092 175.952 149.357C175.841 149.622 175.679 149.863 175.475 150.066C175.271 150.269 175.028 150.429 174.762 150.539C174.495 150.648 174.209 150.704 173.92 150.704Z" fill="#CCCCCC"/>
<path d="M98.3669 86.5316C102.654 86.5316 106.129 83.0779 106.129 78.8176C106.129 74.5573 102.654 71.1036 98.3669 71.1036C94.0798 71.1036 90.6044 74.5573 90.6044 78.8176C90.6044 83.0779 94.0798 86.5316 98.3669 86.5316Z" fill="#ED6F77"/>
<path d="M97.5977 81.7603C97.4231 81.7605 97.2531 81.7044 97.1134 81.6003L97.1047 81.5938L95.2804 80.207C95.1956 80.1428 95.1245 80.0625 95.071 79.9709C95.0175 79.8792 94.9827 79.778 94.9686 79.673C94.9546 79.568 94.9615 79.4612 94.989 79.3589C95.0165 79.2565 95.064 79.1605 95.1289 79.0764C95.1937 78.9924 95.2746 78.9218 95.367 78.8689C95.4593 78.8159 95.5613 78.7816 95.667 78.7678C95.7727 78.754 95.8801 78.7611 95.983 78.7887C96.086 78.8162 96.1824 78.8637 96.2669 78.9283L97.4485 79.8288L100.241 76.2087C100.306 76.1248 100.386 76.0544 100.478 76.0015C100.571 75.9485 100.672 75.9142 100.778 75.9003C100.883 75.8865 100.991 75.8934 101.093 75.9207C101.196 75.9481 101.292 75.9953 101.377 76.0596L101.377 76.0598L101.36 76.0837L101.378 76.0598C101.548 76.1899 101.66 76.3819 101.688 76.5936C101.716 76.8053 101.658 77.0195 101.528 77.1891L98.2432 81.4451C98.1673 81.5432 98.0696 81.6225 97.9577 81.677C97.8459 81.7315 97.723 81.7597 97.5984 81.7593L97.5977 81.7603Z" fill="white"/>
<path d="M106.927 111.827C106.928 112.84 106.727 113.844 106.337 114.78C105.948 115.716 105.376 116.567 104.655 117.283C103.934 118 103.079 118.568 102.137 118.956C101.195 119.344 100.186 119.544 99.166 119.544C99.0993 119.545 99.0326 119.543 98.9662 119.536C97.4399 119.497 95.959 119.012 94.7089 118.141C93.4588 117.27 92.495 116.052 91.938 114.639C91.3811 113.226 91.2557 111.682 91.5777 110.198C91.8997 108.715 92.6547 107.359 93.7482 106.301C94.8417 105.242 96.2252 104.527 97.7255 104.245C99.2259 103.964 100.776 104.129 102.183 104.718C103.59 105.308 104.79 106.297 105.634 107.562C106.478 108.826 106.928 110.31 106.927 111.827V111.827Z" fill="#CCCCCC"/>
<path d="M98.3669 152.553C102.654 152.553 106.129 149.099 106.129 144.839C106.129 140.578 102.654 137.125 98.3669 137.125C94.0798 137.125 90.6044 140.578 90.6044 144.839C90.6044 149.099 94.0798 152.553 98.3669 152.553Z" fill="#CCCCCC"/>
<path d="M197.708 55.2085H181.75C180.585 55.2084 179.468 54.7486 178.644 53.93C177.82 53.1114 177.357 52.0011 177.357 50.8434V39.131C177.357 39.0797 177.372 39.0295 177.399 38.986C177.427 38.9426 177.466 38.9077 177.512 38.8854C177.559 38.863 177.611 38.8542 177.662 38.8598C177.713 38.8654 177.762 38.8853 177.802 38.9171L197.878 54.7218C197.923 54.757 197.955 54.8051 197.971 54.8595C197.987 54.9139 197.986 54.9718 197.967 55.0253C197.948 55.0788 197.913 55.1252 197.867 55.158C197.82 55.1908 197.765 55.2085 197.708 55.2085Z" fill="#CCCCCC"/>
<path d="M106.927 111.827C106.928 112.84 106.727 113.844 106.337 114.78C105.947 115.716 105.376 116.567 104.655 117.283C103.934 118 103.079 118.568 102.137 118.956C101.195 119.344 100.186 119.544 99.166 119.544C99.0993 119.545 99.0326 119.543 98.9662 119.536C97.9634 117.05 97.5767 114.362 97.839 111.696C98.1012 109.031 99.0046 106.467 100.473 104.222C102.279 104.529 103.917 105.461 105.098 106.853C106.279 108.245 106.927 110.007 106.927 111.827V111.827Z" fill="#ED6F77"/>
<path d="M115.72 108.146C115.721 107.567 115.953 107.012 116.365 106.602C116.777 106.193 117.335 105.962 117.918 105.961H129.616C130.299 107.342 130.784 108.811 131.058 110.326H117.918C117.335 110.326 116.777 110.096 116.365 109.688C115.953 109.279 115.721 108.724 115.72 108.146V108.146Z" fill="#ED6F77"/>
<path d="M131.33 113.329C131.331 114.803 131.135 116.27 130.747 117.693H117.918C117.335 117.693 116.777 117.463 116.365 117.054C115.953 116.645 115.722 116.09 115.722 115.511C115.722 114.932 115.953 114.377 116.365 113.968C116.777 113.558 117.335 113.329 117.918 113.329H131.33Z" fill="#ED6F77"/>
<path d="M160.274 140.247C159.942 140.786 159.409 141.173 158.791 141.322C158.173 141.47 157.521 141.369 156.978 141.04L129 124.081C128.731 123.919 128.497 123.705 128.312 123.452C128.126 123.199 127.992 122.912 127.918 122.608C127.844 122.304 127.831 121.988 127.88 121.679C127.928 121.37 128.038 121.073 128.202 120.806C128.366 120.539 128.581 120.307 128.835 120.122C129.09 119.938 129.378 119.805 129.684 119.731C129.99 119.658 130.308 119.644 130.619 119.693C130.93 119.741 131.229 119.85 131.498 120.013L159.475 136.971C160.018 137.3 160.407 137.83 160.557 138.445C160.707 139.059 160.605 139.707 160.274 140.247V140.247Z" fill="#3F3D56"/>
<path d="M132.296 123.288C130.32 126.507 127.428 129.071 123.986 130.657C120.544 132.242 116.706 132.778 112.957 132.196C109.208 131.614 105.718 129.94 102.926 127.386C100.135 124.833 98.1681 121.514 97.2748 117.85C96.3815 114.185 96.6016 110.34 97.9075 106.8C99.2133 103.26 101.546 100.184 104.611 97.9616C107.676 95.7392 111.335 94.4698 115.126 94.314C118.917 94.1581 122.669 95.1229 125.908 97.0863C130.247 99.7231 133.357 103.963 134.554 108.875C135.752 113.787 134.939 118.97 132.296 123.288ZM103.636 105.916C102.154 108.33 101.426 111.127 101.544 113.952C101.661 116.777 102.619 119.505 104.297 121.789C105.974 124.073 108.295 125.812 110.967 126.785C113.639 127.758 116.541 127.922 119.306 127.257C122.072 126.591 124.577 125.125 126.504 123.045C128.431 120.964 129.694 118.362 130.134 115.568C130.573 112.775 130.169 109.914 128.972 107.348C127.776 104.783 125.84 102.628 123.411 101.155C120.152 99.1847 116.24 98.5795 112.533 99.472C108.826 100.365 105.626 102.682 103.636 105.916V105.916Z" fill="#3F3D56"/>
<path d="M193.759 116.418C199.18 116.418 203.575 112.05 203.575 106.663C203.575 101.276 199.18 96.9086 193.759 96.9086C188.338 96.9086 183.943 101.276 183.943 106.663C183.943 112.05 188.338 116.418 193.759 116.418Z" fill="#F6C9B9"/>
<path d="M193.125 161.348C192.935 160.762 192.873 160.142 192.941 159.53C193.01 158.919 193.207 158.328 193.521 157.797C193.835 157.267 194.259 156.808 194.763 156.451C195.268 156.095 195.843 155.848 196.451 155.727C196.643 155.69 196.838 155.666 197.034 155.656L207.374 139.165L197.929 130.242C197.568 129.901 197.279 129.493 197.078 129.04C196.877 128.587 196.768 128.1 196.757 127.605C196.747 127.11 196.835 126.618 197.017 126.158C197.199 125.697 197.471 125.277 197.818 124.922C198.164 124.566 198.578 124.282 199.035 124.087C199.493 123.891 199.984 123.787 200.482 123.781C200.98 123.776 201.474 123.868 201.936 124.053C202.398 124.238 202.818 124.512 203.173 124.86L216.213 137.638L216.239 137.669C216.643 138.279 216.837 139.002 216.795 139.731C216.752 140.46 216.474 141.155 216.002 141.714L201.514 158.741C201.558 158.878 201.594 159.017 201.622 159.157C201.743 159.761 201.735 160.383 201.597 160.983C201.459 161.583 201.195 162.148 200.823 162.64C200.45 163.131 199.977 163.539 199.435 163.837C198.893 164.134 198.293 164.315 197.676 164.366C197.551 164.377 197.427 164.382 197.303 164.382C196.374 164.378 195.469 164.083 194.719 163.538C193.969 162.993 193.411 162.227 193.125 161.348V161.348Z" fill="#F6C9B9"/>
<path d="M177.592 242.422L172.693 242.421L170.362 223.641L177.593 223.641L177.592 242.422Z" fill="#4C4FA6"/>
<path d="M178.842 247.141L163.043 247.141V246.942C163.043 246.14 163.202 245.345 163.511 244.604C163.82 243.862 164.273 243.189 164.844 242.621C165.415 242.054 166.093 241.604 166.839 241.296C167.585 240.989 168.385 240.831 169.193 240.831H169.193L178.842 240.832L178.842 247.141Z" fill="#2F2E41"/>
<path d="M226.292 235.689L222.083 238.18L210.411 223.229L216.624 219.553L226.292 235.689Z" fill="#4C4FA6"/>
<path d="M229.796 239.109L216.221 247.141L216.119 246.971C215.706 246.281 215.433 245.517 215.317 244.723C215.201 243.929 215.243 243.12 215.442 242.342C215.64 241.564 215.991 240.833 216.474 240.19C216.957 239.547 217.563 239.004 218.257 238.594L218.257 238.594L226.548 233.688L229.796 239.109Z" fill="#2F2E41"/>
<path d="M169.744 234.151C166.462 195.743 164.509 160.064 176.508 145.509L176.6 145.396L196.793 153.423L196.826 153.494C196.894 153.642 203.61 168.321 202.044 178.195L207.024 200.963L223.264 227.986C223.395 228.203 223.478 228.446 223.507 228.698C223.536 228.949 223.511 229.204 223.434 229.446C223.356 229.687 223.228 229.909 223.058 230.098C222.887 230.286 222.678 230.436 222.445 230.539L215.387 233.624C214.989 233.797 214.542 233.82 214.127 233.692C213.713 233.563 213.359 233.29 213.13 232.923L195.464 204.296L185.485 182.339C185.431 182.22 185.339 182.122 185.223 182.06C185.107 181.998 184.974 181.976 184.844 181.996C184.714 182.017 184.594 182.08 184.504 182.175C184.413 182.269 184.357 182.391 184.343 182.521L178.811 234.19C178.765 234.629 178.557 235.035 178.226 235.331C177.896 235.626 177.467 235.789 177.023 235.788H171.537C171.086 235.785 170.653 235.616 170.322 235.314C169.99 235.011 169.784 234.596 169.744 234.151V234.151Z" fill="#2F2E41"/>
<path d="M176.576 145.813L176.479 145.767L176.464 145.662C175.71 140.416 176.603 134.586 179.118 128.336C180.358 125.277 182.662 122.763 185.611 121.251C188.56 119.738 191.958 119.329 195.185 120.098V120.098C197.044 120.553 198.787 121.387 200.305 122.547C201.823 123.707 203.081 125.167 204.001 126.835C204.91 128.487 205.463 130.307 205.626 132.182C205.789 134.057 205.559 135.945 204.95 137.727C201.779 146.941 197.666 155.562 197.625 155.648L197.538 155.828L176.576 145.813Z" fill="#6483EC"/>
<path d="M154.544 132.745C155.03 132.364 155.592 132.089 156.193 131.938C156.794 131.787 157.419 131.765 158.03 131.871C158.64 131.978 159.22 132.211 159.733 132.556C160.246 132.901 160.68 133.35 161.007 133.873C161.109 134.039 161.2 134.212 161.278 134.391L180.443 138.24L185.546 126.324C185.741 125.869 186.025 125.457 186.381 125.111C186.737 124.765 187.159 124.493 187.622 124.31C188.084 124.127 188.579 124.037 189.077 124.045C189.574 124.054 190.066 124.16 190.522 124.358C190.978 124.555 191.391 124.841 191.735 125.198C192.08 125.555 192.35 125.977 192.53 126.438C192.71 126.9 192.796 127.392 192.783 127.887C192.77 128.381 192.659 128.869 192.456 129.32L184.978 145.933L184.957 145.969C184.524 146.558 183.911 146.992 183.209 147.208C182.507 147.423 181.754 147.408 181.062 147.164L159.939 139.642C159.825 139.73 159.707 139.812 159.585 139.888C159.059 140.212 158.469 140.422 157.855 140.504C157.241 140.586 156.616 140.538 156.022 140.363C155.428 140.189 154.878 139.891 154.408 139.491C153.937 139.09 153.558 138.595 153.293 138.038C153.239 137.926 153.191 137.812 153.147 137.697C152.825 136.831 152.787 135.886 153.038 134.996C153.289 134.107 153.816 133.319 154.544 132.745V132.745Z" fill="#F6C9B9"/>
<path d="M229.22 117.109C228.274 115.445 226.897 113.92 225.076 113.304C222.724 112.51 220.177 113.356 217.759 113.921C215.896 114.356 213.95 114.622 212.072 114.255C210.194 113.888 208.383 112.802 207.529 111.1C206.272 108.597 207.331 105.611 207.254 102.814C207.215 101.292 206.828 99.7983 206.123 98.4459C205.419 97.0935 204.414 95.9178 203.186 95.0072C201.957 94.0967 200.537 93.4752 199.032 93.1895C197.526 92.9038 195.975 92.9614 194.496 93.358C192.18 92.694 190.084 92.6326 188.652 94.4014C186.85 94.4014 185.122 95.1127 183.848 96.3789C182.574 97.6451 181.858 99.3624 181.858 101.153H188.354C188.046 102.799 188.398 104.5 189.335 105.891C190.482 107.566 192.476 108.777 192.86 110.766C193.232 112.694 191.913 114.523 190.53 115.924C189.147 117.325 187.543 118.713 187.111 120.629C186.846 122.083 187.147 123.582 187.952 124.824C188.755 126.052 189.752 127.143 190.904 128.056C196.093 132.474 202.261 135.609 208.903 137.206C213.581 138.325 218.697 138.615 223.039 136.557C224.776 135.733 226.324 134.563 227.587 133.12C228.85 131.677 229.801 129.991 230.381 128.167C230.96 126.343 231.156 124.421 230.957 122.518C230.757 120.616 230.166 118.775 229.22 117.109V117.109Z" fill="#2F2E41"/>
<path d="M230.686 247.555H154.752C154.646 247.555 154.545 247.513 154.47 247.438C154.395 247.364 154.353 247.263 154.353 247.157C154.353 247.052 154.395 246.951 154.47 246.877C154.545 246.802 154.646 246.76 154.752 246.76H230.686C230.792 246.76 230.894 246.802 230.969 246.877C231.044 246.951 231.086 247.052 231.086 247.157C231.086 247.263 231.044 247.364 230.969 247.438C230.894 247.513 230.792 247.555 230.686 247.555Z" fill="#CCCCCC"/>
</g>
<defs>
<clipPath id="clip0">
<rect width="231" height="247" fill="white" transform="translate(0.0860291 0.554565)"/>
</clipPath>
</defs>
</svg>
