<svg width="229" height="298" viewBox="0 0 229 298" fill="none" xmlns="http://www.w3.org/2000/svg">
<path d="M221.333 0H8.333C3.915 0 0 3.582 0 8V231C0 233.923 1.76 236.612 4.324 238.017L110.907 296.351C112.103 297.006 113.468 297.334 114.791 297.334C116.114 297.334 117.458 297.006 118.655 296.351L224.999 238.017C227.563 236.613 229 233.923 229 231V8C229 3.582 225.751 0 221.333 0ZM213 226.261L114.5 280.213L16 226.261V16H213V226.261Z" fill="#1F6FFF"/>
<path d="M181 209.092V171.5L114.584 206.5L48 171.5V209.001L114.583 245.334L181 209.092Z" fill="#1F6FFF"/>
<path d="M181 153.438V115.846L114.584 150.846L48 115.846V153.347L114.583 189.68L181 153.438Z" fill="#1F6FFF"/>
<path d="M88.586 115.683L115.332 96.263L142.08 115.723L131.865 84.33L158.611 65H125.551L115.332 33.557L105.115 65H72.055L98.801 84.336L88.586 115.683Z" fill="#1F6FFF"/>
</svg>
