<svg width="302" height="302" viewBox="0 0 302 302" fill="none" xmlns="http://www.w3.org/2000/svg">
<path d="M272.013 239.992C344.29 141.941 275.356 1.036 151.905 0.058998C151.9 0.058998 151.896 0.057998 151.891 0.057998C151.878 0.057998 151.864 0.057998 151.852 0.056998C151.833 0.056998 151.813 0.055998 151.795 0.055998C151.781 0.055998 151.766 0.055998 151.752 0.055998C150.996 0.036998 150.23 0.036998 149.556 0.055998C149.549 0.055998 149.543 0.055998 149.536 0.055998C149.527 0.055998 149.518 0.056998 149.51 0.056998C149.503 0.056998 149.495 0.056998 149.488 0.056998C149.485 0.056998 149.483 0.056998 149.48 0.056998C65.826 0.690998 0 68.785 0 150.71C0 233.911 67.451 301.374 150.664 301.374C177.429 301.374 204.179 294.302 228.017 280.007L247.142 299.133C250.123 302.111 254.968 302.126 257.961 299.132L289.142 267.94C292.13 264.951 292.129 260.108 289.142 257.122L272.013 239.992ZM104.596 23.536C92.138 37.607 81.843 57.499 74.897 81.86H34.13C50.241 54.704 75.415 34.187 104.596 23.536ZM26.319 97.16H71.106C67.997 111.841 66.209 127.214 65.775 143.06H15.51C16.385 127.124 20.014 111.736 26.319 97.16ZM15.51 158.36H65.776C66.209 174.207 67.998 189.58 71.107 204.26H26.319C20.014 189.686 16.385 174.298 15.51 158.36ZM34.13 219.56H74.896C81.842 243.919 92.135 263.81 104.586 277.88C75.411 267.229 50.242 246.713 34.13 219.56ZM143.014 285.21C121.674 280.428 102.134 255.883 90.863 219.56H143.014V285.21ZM143.014 204.26H86.782C83.462 189.664 81.541 174.283 81.079 158.36H143.014C143.014 181.499 143.014 193.693 143.014 204.26ZM143.014 143.06H81.079C81.54 127.137 83.461 111.757 86.781 97.16H143.015V143.06H143.014ZM143.014 81.859H90.864C102.128 45.557 121.655 21.017 143.015 16.215V81.859H143.014ZM275.008 204.26H267.43L274.025 197.665C278.187 193.501 276.272 186.386 270.595 184.866L234.547 175.206C235.052 169.662 235.394 164.036 235.551 158.361H285.818C284.943 174.295 281.315 189.682 275.008 204.26ZM285.818 143.06H235.553C235.12 127.213 233.33 111.84 230.222 97.16H275.008C281.314 111.734 284.943 127.123 285.818 143.06ZM267.198 81.86H226.432C219.486 57.501 209.193 37.61 196.742 23.54C225.919 34.19 251.089 54.707 267.198 81.86ZM158.314 16.209C179.654 20.991 199.194 45.536 210.465 81.859H158.314V16.209ZM158.314 97.16H214.547C217.867 111.755 219.789 127.136 220.25 143.06H158.315V97.16H158.314ZM220.235 158.36C220.109 162.671 219.887 166.956 219.549 171.186L171.69 158.36H220.235ZM158.314 285.204V219.56H158.531L174.147 277.84C169.022 281.506 163.702 283.986 158.314 285.204ZM196.436 278.124C199.745 274.425 202.908 270.311 205.901 265.799L209.856 261.844L216.835 268.823C210.286 272.501 203.462 275.602 196.436 278.124ZM252.551 282.904L215.265 245.617C212.279 242.631 207.435 242.628 204.446 245.616C193.548 256.514 196.406 253.656 186.235 263.828L161.484 171.465C199.973 181.781 243.307 193.393 253.838 196.215L235.627 214.424C232.639 217.413 232.639 222.256 235.627 225.243L272.916 262.532L252.551 282.904ZM267.228 219.56C265.308 222.805 263.256 225.972 261.069 229.048L251.856 219.835L252.13 219.56H267.228Z" fill="#B5B6CD"/>
</svg>
