<svg width="333" height="77" viewBox="0 0 333 77" fill="none" xmlns="http://www.w3.org/2000/svg">
<path fill-rule="evenodd" clip-rule="evenodd" d="M309.53 21.4685C309.273 21.4051 309.145 21.3733 308.918 21.1911L292.021 6.93411C291.694 6.6015 291.526 6.18193 291.643 5.70716C291.761 5.23239 292.105 4.9398 292.549 4.79765L314.145 0.0638439C314.588 -0.078309 314.973 0.016923 315.3 0.349541L332.046 14.4793C332.593 14.7423 332.851 15.2645 332.702 15.8653L328.885 31.2953C328.709 32.0075 328.078 32.3552 327.308 32.1648C326.538 31.9743 326.143 31.3726 326.319 30.6604L329.653 17.1848L310.073 21.4768C309.915 21.5638 309.787 21.532 309.53 21.4685ZM308.943 23.8424C309.584 24.0011 310.255 24.0411 310.857 23.812L323.213 21.2009L322.067 25.8299C321.486 28.1781 318.369 29.7961 314.488 30.2387L314.604 52.8535C314.652 57.5575 313.692 61.7095 311.724 65.3095C309.756 68.9095 306.996 71.7175 303.444 73.7335C299.892 75.7495 295.764 76.7575 291.06 76.7575C283.38 76.7575 277.452 74.8375 273.276 70.9975C269.148 67.1575 267.084 61.4695 267.084 53.9335V24.8455H281.484V53.2135C281.484 57.1015 282.372 59.8855 284.148 61.5655C285.972 63.2455 288.3 64.0855 291.132 64.0855C294.108 64.0855 296.412 63.1735 298.044 61.3495C299.724 59.5255 300.54 56.5255 300.492 52.3495L300.356 26.4138C297.545 24.2884 295.868 21.6547 296.405 19.4811L297.551 14.852L307.264 22.9232C307.689 23.4063 308.301 23.6837 308.943 23.8424ZM73.448 24.8455L71.36 37.3735H56.384V75.9655H41.984V37.3735H26V24.8455H73.448ZM83.2946 76.7575C78.8786 76.7575 75.5186 75.2935 73.2146 72.3655C70.9586 69.4375 69.8546 65.1895 69.9026 59.6215L70.0466 38.9575H83.4386L83.2946 58.6855C83.2946 62.4295 84.6146 64.3015 87.2546 64.3015C88.4546 64.3015 89.5346 63.9415 90.4946 63.2215C91.5026 62.4535 92.3666 61.1335 93.0866 59.2615C93.8066 57.3895 94.3826 54.8215 94.8146 51.5575C95.2466 48.2455 95.4866 44.0455 95.5346 38.9575H108.495V75.9655H95.4626L96.1826 69.0535C94.7426 71.4055 92.9186 73.2775 90.7106 74.6695C88.5506 76.0615 86.0786 76.7575 83.2946 76.7575ZM133.758 76.7575C128.862 76.7575 125.022 75.4375 122.238 72.7975C119.454 70.1095 118.086 66.6055 118.134 62.2855L118.35 49.9735H112.446V38.9575H118.566L118.71 31.4695H131.958L131.814 38.9575H142.902V49.9735H131.67L131.526 60.7015C131.478 62.1895 131.862 63.3415 132.678 64.1575C133.542 64.9255 134.718 65.3095 136.206 65.3095C137.214 65.3095 138.222 65.1895 139.23 64.9495C140.238 64.6615 141.27 64.1575 142.326 63.4375L146.07 73.5175C144.87 74.5255 143.214 75.3175 141.102 75.8935C138.99 76.4695 136.542 76.7575 133.758 76.7575ZM166.76 38.4535C170.744 38.4535 174.176 39.1975 177.056 40.6855C179.936 42.1735 182.144 44.2855 183.68 47.0215C185.264 49.7575 186.056 52.9975 186.056 56.7415C186.056 60.5815 185.192 64.0135 183.464 67.0375C181.736 70.0615 179.288 72.4375 176.12 74.1655C173 75.8935 169.328 76.7575 165.104 76.7575C159.152 76.7575 154.472 75.1255 151.064 71.8615C147.656 68.5495 145.952 64.0855 145.952 58.4695C145.952 54.6295 146.816 51.1975 148.544 48.1735C150.272 45.1495 152.696 42.7735 155.816 41.0455C158.936 39.3175 162.584 38.4535 166.76 38.4535ZM165.752 65.2375C167.72 65.2375 169.304 64.4935 170.504 63.0055C171.704 61.4695 172.304 59.4535 172.304 56.9575C172.304 54.7495 171.752 53.0455 170.648 51.8455C169.592 50.5975 168.152 49.9735 166.328 49.9735C164.312 49.9735 162.704 50.7175 161.504 52.2055C160.304 53.6935 159.704 55.7095 159.704 58.2535C159.704 60.4615 160.232 62.1895 161.288 63.4375C162.344 64.6375 163.832 65.2375 165.752 65.2375ZM218.774 51.9895C217.718 51.5095 216.47 51.2695 215.03 51.2695C211.238 51.2695 208.622 53.2615 207.182 57.2455C205.742 61.2295 205.022 67.4695 205.022 75.9655H191.702V51.9175L191.558 38.9575H204.878L204.302 48.4615C205.454 45.0055 207.11 42.4855 209.27 40.9015C211.43 39.2695 213.83 38.4535 216.47 38.4535C217.286 38.4535 218.054 38.5015 218.774 38.5975C219.542 38.6935 220.358 38.8855 221.222 39.1735L218.774 51.9895ZM242.704 75.9655V65.0215H221.32V55.5895L246.376 24.7015H256.096V54.7255H263.296V65.0215H256.096V75.9655H242.704ZM234.136 54.7255H242.704V44.2135L234.136 54.7255Z" fill="white"/>
<rect y="29.7357" width="49" height="20.1282" rx="8" transform="rotate(-37.3622 0 29.7357)" fill="#00B7DF"/>
<path d="M15.1207 37.0632L8.22689 28.0341L11.8512 25.2668C13.0382 24.3606 14.1179 23.8852 15.0903 23.8406C16.0628 23.7959 16.8629 24.1848 17.4908 25.0072C17.7886 25.3972 17.9832 25.819 18.0745 26.2726C18.1594 26.7178 18.1429 27.1531 18.0249 27.5787C18.4766 27.5023 18.9271 27.5475 19.3766 27.7143C19.8345 27.8746 20.2317 28.1752 20.5683 28.6161C20.9761 29.1502 21.1828 29.7372 21.1883 30.3772C21.1938 31.0172 21.0084 31.662 20.6321 32.3117C20.2643 32.9549 19.7158 33.5548 18.9867 34.1115L15.1207 37.0632ZM13.5289 27.2269L12.2827 28.1785L13.3604 29.59L14.594 28.6482C14.967 28.3634 15.193 28.0969 15.272 27.8488C15.3444 27.5921 15.2933 27.3494 15.1185 27.1204C14.7625 26.6542 14.2326 26.6896 13.5289 27.2269ZM16.05 33.1127L17.5125 31.9961C17.8346 31.7501 18.0404 31.4923 18.1299 31.2227C18.2193 30.9531 18.1669 30.6912 17.9727 30.4368C17.785 30.191 17.5685 30.0744 17.3233 30.0872C17.078 30.1 16.7689 30.2488 16.3959 30.5336L14.9334 31.6502L16.05 33.1127ZM26.8777 28.308C26.1317 28.8776 25.3828 29.2414 24.631 29.3994C23.8728 29.5488 23.1501 29.4899 22.463 29.2228C21.7844 28.9491 21.1861 28.4732 20.6683 27.7949C20.144 27.1082 19.8327 26.393 19.7346 25.6493C19.645 24.8991 19.7487 24.1824 20.0458 23.4993C20.3428 22.8162 20.8093 22.2319 21.4452 21.7464C22.2251 21.1509 22.9777 20.8447 23.7029 20.8278C24.4282 20.8109 25.1053 21.0387 25.7345 21.5112C26.3656 21.9687 26.9239 22.6295 27.4092 23.4937L23.4923 26.4842C23.7135 26.6509 24.0085 26.7209 24.3774 26.6942C24.7398 26.6591 25.1287 26.483 25.5441 26.1658C25.7815 25.9845 25.977 25.7749 26.1307 25.5367C26.2864 25.2836 26.377 25.0333 26.4026 24.7856L28.7334 25.2808C28.7096 25.7418 28.5635 26.2358 28.2949 26.763C28.0284 27.2751 27.556 27.7902 26.8777 28.308ZM22.8189 23.3347C22.556 23.5354 22.3864 23.779 22.3099 24.0655C22.2334 24.352 22.2616 24.6526 22.3945 24.9672L24.3147 23.5011C23.8686 22.9694 23.3699 22.9139 22.8189 23.3347ZM33.6416 23.1437C32.7768 23.804 31.9206 24.0887 31.0729 23.9978C30.2186 23.8985 29.5045 23.4641 28.9304 22.6946L27.3082 20.4908L26.2654 21.287L24.7798 19.3413L25.8608 18.516L24.8764 17.174L27.2163 15.3874L28.2007 16.7294L30.1591 15.2341L31.6447 17.1798L29.6608 18.6945L31.0821 20.6088C31.2743 20.8781 31.4975 21.0298 31.7517 21.0639C32.0078 21.083 32.2673 20.9922 32.5302 20.7916C32.7082 20.6556 32.8701 20.4985 33.0157 20.3202C33.1549 20.1334 33.2692 19.9052 33.3587 19.6356L35.3793 20.9111C35.3033 21.251 35.1176 21.6142 34.8222 22.0007C34.5269 22.3873 34.1333 22.7683 33.6416 23.1437ZM37.8328 9.45574L42.7847 15.9414L40.432 17.7377L39.7868 16.7608C39.8982 17.8031 39.5045 18.6673 38.6058 19.3535C37.7495 20.0072 36.8535 20.2485 35.9175 20.0774C34.9816 19.9062 34.1415 19.3332 33.3971 18.3582C32.8404 17.6291 32.5075 16.8767 32.3985 16.1011C32.2979 15.319 32.3886 14.5854 32.6708 13.9003C32.9464 13.2067 33.3767 12.6365 33.9617 12.1899C34.411 11.8468 34.854 11.6361 35.2907 11.5577C35.7294 11.4643 36.1446 11.4895 36.5362 11.6334L36.1541 10.7374L37.8328 9.45574ZM35.884 13.943C35.4941 14.2408 35.2979 14.6254 35.2955 15.0969C35.2867 15.56 35.4441 16.0034 35.7678 16.4273C36.0591 16.8088 36.3714 17.0334 36.7048 17.1009C37.0382 17.1684 37.3575 17.0857 37.6627 16.8527C38.0103 16.5873 38.2012 16.2134 38.2355 15.7309C38.2782 15.242 38.1216 14.7644 37.7656 14.2981C37.5002 13.9505 37.1965 13.7462 36.8547 13.6851C36.5213 13.6176 36.1977 13.7035 35.884 13.943Z" fill="white"/>
</svg>
