<svg width="32" height="20" viewBox="0 0 32 20" fill="none" xmlns="http://www.w3.org/2000/svg">
<path d="M9.08703 9.88206C11.592 9.88206 13.621 7.85206 13.621 5.34406C13.621 3.77806 14.168 2.34806 12.962 1.53306C12.239 1.04206 9.05803 0.810059 8.11703 0.810059C6.99903 0.810059 5.54603 1.72106 4.75603 2.39006C3.77103 3.22206 4.54803 3.95506 4.54803 5.34406C4.54803 7.85206 6.57603 9.88206 9.08703 9.88206ZM5.92503 4.90006C6.75703 4.74806 7.32303 5.02306 7.32303 5.02306L8.71703 4.34506C8.71703 4.34506 8.00903 5.37006 8.64703 5.02306C10.062 4.54506 11.647 4.74506 12.456 4.90306C12.484 5.08006 12.509 5.26106 12.509 5.45006C12.509 7.31706 11.027 8.82706 9.18903 8.82706C7.35503 8.82706 5.87103 7.31706 5.87103 5.45006C5.86903 5.26106 5.89603 5.07906 5.92503 4.90006Z" fill="#B5B6CD"/>
<path d="M16.878 10.618C16.626 8.32605 17.721 6.94305 18.143 6.50005C18.533 8.87305 20.581 10.694 23.061 10.694C25.411 10.694 27.373 9.05805 27.908 6.86805C28.309 7.58405 28.992 9.04705 28.826 10.618C32.994 10.583 30.94 5.82005 28.018 5.29705C27.997 5.05405 27.977 4.81005 27.923 4.57605C27.75 3.07005 26.402 0.0100457 22.542 0.104046C19.21 0.181046 18.482 2.68705 18.311 4.21505C18.192 4.59105 18.118 4.98405 18.091 5.39005C13.753 6.14605 14.231 10.544 16.878 10.618ZM20.717 4.28005C20.717 4.28005 21.145 4.42605 21.145 5.81705C21.88 6.07505 23.159 3.65605 23.159 3.65605V5.56105C23.977 5.78205 26.538 5.48705 26.538 5.48705L26.634 5.57005C26.636 5.61105 26.646 5.65005 26.646 5.69205C26.646 7.67105 25.038 9.27905 23.062 9.27905C21.113 9.27905 19.527 7.71205 19.484 5.77005C20.193 5.51205 20.717 4.28005 20.717 4.28005Z" fill="#B5B6CD"/>
<path d="M24.171 11.3511H22.068H20.307L16.466 15.9771L12.276 10.8301H6.279L0 17.7221L1.317 19.0811L5.813 15.2441L5.911 18.2401L12.836 18.1341L12.855 15.3821L15.685 18.2901L16.27 19.0811L16.355 18.9791L16.45 19.0751L16.7 18.5861L20.118 14.6721L20.339 16.4171L19.65 17.9491L26.639 17.8321L25.711 16.4171L25.884 14.2691L28.893 18.3011L30.891 17.8061L26.117 11.3511H24.171Z" fill="#B5B6CD"/>
</svg>
