<svg width="230" height="298" viewBox="0 0 230 298" fill="none" xmlns="http://www.w3.org/2000/svg">
<path d="M221.5 0H8.49999C4.08199 0 0.166992 3.582 0.166992 8V231C0.166992 233.923 1.92699 236.612 4.49099 238.017L111.074 296.351C112.27 297.006 113.635 297.334 114.958 297.334C116.281 297.334 117.625 297.006 118.822 296.351L225.166 238.017C227.73 236.613 229.167 233.923 229.167 231V8C229.167 3.582 225.918 0 221.5 0ZM213.167 226.261L114.667 280.213L16.167 226.261V16H213.167V226.261Z" fill="#B5B6CD"/>
<path d="M181.167 209.092V171.5L114.751 206.5L48.167 171.5V209.001L114.75 245.334L181.167 209.092Z" fill="#B5B6CD"/>
<path d="M181.167 153.438V115.846L114.751 150.846L48.167 115.846V153.347L114.75 189.68L181.167 153.438Z" fill="#B5B6CD"/>
<path d="M88.753 115.683L115.499 96.263L142.247 115.723L132.032 84.33L158.778 65H125.718L115.499 33.557L105.282 65H72.222L98.968 84.336L88.753 115.683Z" fill="#B5B6CD"/>
</svg>
