<?xml version="1.0" encoding="UTF-8"?>
<svg xmlns="http://www.w3.org/2000/svg" xmlns:xlink="http://www.w3.org/1999/xlink" viewBox="0 0 500 500" width="500px" height="500px">
<g id="surface12073649">
<path style=" stroke:none;fill-rule:nonzero;fill:rgb(70.980394%,71.372551%,80.392158%);fill-opacity:1;" d="M 190 20 C 162.503906 20 140 42.503906 140 70 C 140 97.496094 162.503906 120 190 120 L 230 120 C 235.523438 120 240 115.523438 240 110 L 240 70 C 240 42.503906 217.496094 20 190 20 Z M 310 20 C 282.503906 20 260 42.503906 260 70 L 260 190 C 260 217.496094 282.503906 240 310 240 C 337.496094 240 360 217.496094 360 190 L 360 70 C 360 42.503906 337.496094 20 310 20 Z M 190 40 C 206.683594 40 220 53.316406 220 70 L 220 100 L 190 100 C 173.316406 100 160 86.683594 160 70 C 160 53.316406 173.316406 40 190 40 Z M 310 40 C 326.683594 40 340 53.316406 340 70 L 340 190 C 340 206.683594 326.683594 220 310 220 C 293.316406 220 280 206.683594 280 190 L 280 70 C 280 53.316406 293.316406 40 310 40 Z M 70 140 C 42.503906 140 20 162.503906 20 190 C 20 217.496094 42.503906 240 70 240 L 190 240 C 217.496094 240 240 217.496094 240 190 C 240 162.503906 217.496094 140 190 140 Z M 430 140 C 402.503906 140 380 162.503906 380 190 L 380 230 C 380 235.523438 384.476562 240 390 240 L 430 240 C 457.496094 240 480 217.496094 480 190 C 480 162.503906 457.496094 140 430 140 Z M 70 160 L 190 160 C 206.683594 160 220 173.316406 220 190 C 220 206.683594 206.683594 220 190 220 L 70 220 C 53.316406 220 40 206.683594 40 190 C 40 173.316406 53.316406 160 70 160 Z M 430 160 C 446.683594 160 460 173.316406 460 190 C 460 206.683594 446.683594 220 430 220 L 400 220 L 400 190 C 400 173.316406 413.316406 160 430 160 Z M 70 260 C 42.503906 260 20 282.503906 20 310 C 20 337.496094 42.503906 360 70 360 C 97.496094 360 120 337.496094 120 310 L 120 270 C 120 264.476562 115.523438 260 110 260 Z M 190 260 C 162.503906 260 140 282.503906 140 310 L 140 430 C 140 457.496094 162.503906 480 190 480 C 217.496094 480 240 457.496094 240 430 L 240 310 C 240 282.503906 217.496094 260 190 260 Z M 310 260 C 282.503906 260 260 282.503906 260 310 C 260 337.496094 282.503906 360 310 360 L 430 360 C 457.496094 360 480 337.496094 480 310 C 480 282.503906 457.496094 260 430 260 Z M 70 280 L 100 280 L 100 310 C 100 326.683594 86.683594 340 70 340 C 53.316406 340 40 326.683594 40 310 C 40 293.316406 53.316406 280 70 280 Z M 190 280 C 206.683594 280 220 293.316406 220 310 L 220 430 C 220 446.683594 206.683594 460 190 460 C 173.316406 460 160 446.683594 160 430 L 160 310 C 160 293.316406 173.316406 280 190 280 Z M 310 280 L 430 280 C 446.683594 280 460 293.316406 460 310 C 460 326.683594 446.683594 340 430 340 L 310 340 C 293.316406 340 280 326.683594 280 310 C 280 293.316406 293.316406 280 310 280 Z M 270 380 C 264.476562 380 260 384.476562 260 390 L 260 430 C 260 457.496094 282.503906 480 310 480 C 337.496094 480 360 457.496094 360 430 C 360 402.503906 337.496094 380 310 380 Z M 280 400 L 310 400 C 326.683594 400 340 413.316406 340 430 C 340 446.683594 326.683594 460 310 460 C 293.316406 460 280 446.683594 280 430 Z M 280 400 "/>
</g>
</svg>
