<svg width="893" height="712" viewBox="0 0 893 712" fill="none" xmlns="http://www.w3.org/2000/svg">
<g clip-path="url(#clip0)">
<g clip-path="url(#clip1)">
<path d="M1004.08 350.384H327.584C317.768 350.373 308.358 346.465 301.417 339.517C294.477 332.569 290.573 323.148 290.562 313.322V96.5625C290.573 86.7363 294.477 77.3158 301.417 70.3676C308.358 63.4195 317.768 59.5111 327.584 59.5H1004.08C1013.9 59.5111 1023.31 63.4195 1030.25 70.3676C1037.19 77.3158 1041.09 86.7363 1041.1 96.5625V313.322C1041.09 323.148 1037.19 332.569 1030.25 339.517C1023.31 346.465 1013.9 350.373 1004.08 350.384V350.384Z" fill="#E6E6E6"/>
<path d="M328.706 74.1004C322.757 74.1072 317.054 76.4759 312.847 80.6869C308.641 84.8979 306.275 90.6073 306.268 96.5625V313.322C306.275 319.277 308.641 324.987 312.847 329.198C317.054 333.409 322.757 335.777 328.706 335.784H1005.2C1011.15 335.777 1016.85 333.409 1021.06 329.198C1025.27 324.987 1027.63 319.277 1027.64 313.322V96.5625C1027.63 90.6073 1025.27 84.8979 1021.06 80.6869C1016.85 76.4759 1011.15 74.1072 1005.2 74.1004H328.706Z" fill="white"/>
<path d="M413.568 164.779C408.707 164.779 403.956 163.336 399.914 160.632C395.872 157.929 392.722 154.086 390.862 149.591C389.002 145.095 388.515 140.148 389.464 135.375C390.412 130.603 392.753 126.219 396.19 122.778C399.627 119.337 404.006 116.994 408.774 116.044C413.541 115.095 418.483 115.582 422.973 117.445C427.464 119.307 431.303 122.46 434.003 126.506C436.704 130.552 438.145 135.309 438.145 140.175V140.175C438.138 146.698 435.546 152.952 430.939 157.565C426.331 162.177 420.084 164.772 413.568 164.779V164.779ZM413.568 118.852C409.356 118.852 405.237 120.103 401.735 122.446C398.232 124.789 395.502 128.119 393.89 132.015C392.278 135.912 391.856 140.199 392.678 144.335C393.5 148.471 395.528 152.271 398.507 155.253C401.486 158.235 405.281 160.266 409.413 161.089C413.545 161.911 417.827 161.489 421.719 159.875C425.611 158.261 428.938 155.528 431.278 152.022C433.619 148.515 434.868 144.393 434.868 140.175V140.175C434.862 134.522 432.616 129.102 428.623 125.105C424.629 121.107 419.215 118.859 413.568 118.852Z" fill="#CCCCCC"/>
<path d="M413.024 134.591H412.979L410.385 135.993L409.995 134.454L413.254 132.708H414.975V147.643H413.024V134.591Z" fill="#CCCCCC"/>
<path d="M380.017 204.498C380.596 204.519 381.167 204.364 381.657 204.054C382.147 203.745 382.532 203.295 382.763 202.764C382.993 202.232 383.059 201.643 382.951 201.073C382.843 200.504 382.566 199.98 382.157 199.57C381.747 199.16 381.224 198.883 380.655 198.775C380.086 198.667 379.498 198.733 378.967 198.964C378.436 199.195 377.987 199.581 377.678 200.071C377.368 200.561 377.214 201.133 377.234 201.712C377.259 202.443 377.561 203.137 378.077 203.654C378.594 204.171 379.287 204.473 380.017 204.498Z" fill="#E6E6E6"/>
<path d="M380.017 222.541C380.596 222.561 381.167 222.406 381.657 222.097C382.147 221.788 382.532 221.338 382.763 220.806C382.993 220.274 383.059 219.686 382.951 219.116C382.843 218.547 382.566 218.023 382.157 217.613C381.747 217.203 381.224 216.926 380.655 216.818C380.086 216.71 379.498 216.775 378.967 217.006C378.436 217.237 377.987 217.623 377.678 218.113C377.368 218.604 377.214 219.176 377.234 219.755C377.259 220.486 377.561 221.18 378.077 221.697C378.594 222.214 379.287 222.516 380.017 222.541V222.541Z" fill="#E6E6E6"/>
<path d="M380.017 240.584C380.596 240.604 381.167 240.449 381.657 240.14C382.147 239.83 382.532 239.38 382.763 238.849C382.993 238.317 383.059 237.728 382.951 237.159C382.843 236.589 382.566 236.065 382.157 235.655C381.747 235.246 381.224 234.968 380.655 234.86C380.086 234.752 379.498 234.818 378.967 235.049C378.436 235.28 377.987 235.666 377.678 236.156C377.368 236.646 377.214 237.218 377.234 237.797C377.259 238.528 377.561 239.222 378.077 239.74C378.594 240.257 379.287 240.558 380.017 240.584Z" fill="#E6E6E6"/>
<path d="M448.265 203.253H395.834C395.399 203.253 394.983 203.08 394.675 202.772C394.368 202.465 394.196 202.047 394.196 201.612C394.196 201.177 394.368 200.76 394.675 200.453C394.983 200.145 395.399 199.972 395.834 199.972H448.265C448.699 199.972 449.116 200.145 449.423 200.453C449.73 200.76 449.903 201.177 449.903 201.612C449.903 202.047 449.73 202.465 449.423 202.772C449.116 203.08 448.699 203.253 448.265 203.253H448.265Z" fill="#E6E6E6"/>
<path d="M448.264 221.295H395.834C395.399 221.296 394.982 221.123 394.675 220.816C394.367 220.509 394.194 220.092 394.194 219.657C394.193 219.222 394.365 218.804 394.672 218.496C394.979 218.188 395.396 218.015 395.83 218.015H448.264C448.699 218.014 449.116 218.187 449.423 218.494C449.731 218.801 449.904 219.218 449.905 219.653C449.905 220.088 449.733 220.506 449.426 220.813C449.119 221.121 448.702 221.295 448.268 221.295H448.264Z" fill="#E6E6E6"/>
<path d="M448.265 239.338H395.834C395.399 239.338 394.983 239.165 394.675 238.857C394.368 238.55 394.196 238.133 394.196 237.698C394.196 237.262 394.368 236.845 394.675 236.538C394.983 236.23 395.399 236.057 395.834 236.057H448.264C448.48 236.057 448.693 236.099 448.892 236.181C449.09 236.264 449.271 236.384 449.424 236.536C449.576 236.689 449.697 236.869 449.779 237.068C449.862 237.267 449.904 237.48 449.905 237.696C449.905 237.911 449.863 238.125 449.781 238.324C449.698 238.523 449.578 238.704 449.426 238.856C449.274 239.009 449.094 239.13 448.895 239.212C448.696 239.295 448.483 239.338 448.268 239.338H448.265Z" fill="#E6E6E6"/>
<path d="M565.799 161.41C560.938 161.41 556.186 159.967 552.145 157.263C548.103 154.56 544.953 150.717 543.093 146.221C541.233 141.726 540.746 136.779 541.694 132.006C542.643 127.233 544.983 122.849 548.42 119.409C551.858 115.968 556.237 113.624 561.004 112.675C565.772 111.726 570.713 112.213 575.204 114.075C579.695 115.937 583.533 119.091 586.234 123.137C588.934 127.183 590.376 131.94 590.376 136.806C590.376 140.037 589.74 143.236 588.505 146.221C587.27 149.206 585.459 151.919 583.177 154.203C580.895 156.488 578.186 158.3 575.204 159.537C572.222 160.773 569.026 161.41 565.799 161.41V161.41ZM565.799 115.483C561.586 115.483 557.468 116.733 553.965 119.076C550.462 121.419 547.732 124.75 546.12 128.646C544.508 132.542 544.086 136.83 544.908 140.966C545.73 145.102 547.759 148.902 550.737 151.884C553.716 154.866 557.512 156.897 561.643 157.719C565.775 158.542 570.058 158.12 573.95 156.506C577.842 154.892 581.168 152.159 583.509 148.653C585.849 145.146 587.099 141.023 587.099 136.806V136.806C587.092 131.153 584.846 125.733 580.853 121.735C576.86 117.738 571.446 115.489 565.799 115.483V115.483Z" fill="#CCCCCC"/>
<path d="M561.451 144.4V143.159L563.034 141.619C566.845 137.99 568.567 136.058 568.589 133.807C568.63 133.41 568.581 133.009 568.446 132.633C568.311 132.258 568.093 131.917 567.809 131.637C567.525 131.357 567.181 131.145 566.804 131.015C566.427 130.886 566.025 130.843 565.629 130.891C564.459 130.934 563.34 131.379 562.461 132.153L561.818 130.729C563.004 129.741 564.499 129.204 566.042 129.212C566.635 129.159 567.233 129.233 567.796 129.43C568.358 129.626 568.873 129.94 569.305 130.351C569.737 130.762 570.076 131.26 570.301 131.812C570.526 132.364 570.631 132.958 570.609 133.554C570.609 136.311 568.612 138.541 565.468 141.573L564.274 142.677V142.721H570.976V144.4H561.451Z" fill="#CCCCCC"/>
<path d="M630.868 293.067H500.73C498.053 293.064 495.486 291.998 493.593 290.103C491.7 288.208 490.636 285.639 490.633 282.959V205.465C490.636 202.785 491.7 200.216 493.593 198.321C495.486 196.426 498.053 195.36 500.73 195.357H630.868C633.545 195.36 636.111 196.426 638.004 198.321C639.897 200.216 640.962 202.785 640.965 205.465V282.959C640.962 285.639 639.897 288.208 638.004 290.103C636.111 291.998 633.545 293.064 630.868 293.067V293.067Z" fill="white"/>
<path d="M610.037 216.328H521.56C521.126 216.328 520.709 216.156 520.401 215.849C520.094 215.541 519.921 215.124 519.92 214.689C519.92 214.254 520.092 213.837 520.399 213.529C520.706 213.221 521.122 213.048 521.557 213.047H610.037C610.472 213.047 610.889 213.219 611.196 213.527C611.504 213.834 611.677 214.251 611.677 214.686C611.678 215.121 611.506 215.538 611.199 215.846C610.892 216.154 610.475 216.327 610.041 216.328H610.037Z" fill="#E6E6E6"/>
<path d="M610.037 231.09H521.56C521.126 231.091 520.709 230.918 520.401 230.611C520.094 230.304 519.921 229.887 519.92 229.452C519.92 229.017 520.092 228.599 520.399 228.291C520.706 227.983 521.122 227.81 521.557 227.81H610.037C610.472 227.81 610.888 227.982 611.196 228.29C611.503 228.598 611.675 229.015 611.675 229.45C611.675 229.885 611.503 230.302 611.196 230.61C610.888 230.917 610.472 231.09 610.037 231.09H610.037Z" fill="#E6E6E6"/>
<path d="M610.037 245.852H521.56C521.126 245.853 520.709 245.68 520.401 245.373C520.094 245.066 519.921 244.649 519.92 244.214C519.92 243.779 520.092 243.361 520.399 243.053C520.706 242.745 521.122 242.572 521.557 242.572H610.037C610.472 242.571 610.889 242.744 611.196 243.051C611.504 243.358 611.677 243.775 611.677 244.21C611.678 244.645 611.506 245.063 611.199 245.37C610.892 245.678 610.475 245.852 610.041 245.852H610.037Z" fill="#E6E6E6"/>
<path d="M610.037 260.614H521.561C521.127 260.614 520.711 260.441 520.404 260.134C520.097 259.827 519.925 259.41 519.924 258.976C519.924 258.542 520.095 258.125 520.402 257.817C520.708 257.509 521.123 257.335 521.557 257.334H610.037C610.471 257.335 610.886 257.508 611.193 257.816C611.499 258.123 611.671 258.54 611.671 258.974C611.671 259.408 611.499 259.825 611.193 260.132C610.886 260.44 610.471 260.613 610.037 260.614H610.037Z" fill="#E6E6E6"/>
<path d="M610.037 275.376H521.561C521.126 275.376 520.709 275.204 520.402 274.896C520.095 274.588 519.922 274.171 519.922 273.736C519.922 273.301 520.095 272.884 520.402 272.576C520.709 272.269 521.126 272.096 521.561 272.096H610.037C610.472 272.095 610.889 272.268 611.196 272.575C611.504 272.882 611.677 273.299 611.677 273.734C611.678 274.169 611.506 274.587 611.199 274.895C610.892 275.203 610.475 275.376 610.041 275.376H610.037Z" fill="#E6E6E6"/>
<path d="M630.868 293.067H500.73C498.053 293.064 495.486 291.998 493.593 290.103C491.7 288.208 490.636 285.639 490.633 282.959V205.465C490.636 202.785 491.7 200.216 493.593 198.321C495.486 196.426 498.053 195.36 500.73 195.357H630.868C633.545 195.36 636.111 196.426 638.004 198.321C639.897 200.216 640.962 202.785 640.965 205.465V282.959C640.962 285.639 639.897 288.208 638.004 290.103C636.111 291.998 633.545 293.064 630.868 293.067V293.067ZM500.73 197.603C498.647 197.605 496.651 198.434 495.179 199.908C493.707 201.382 492.879 203.38 492.876 205.465V282.959C492.879 285.043 493.707 287.042 495.179 288.516C496.651 289.989 498.647 290.818 500.73 290.821H630.868C632.95 290.818 634.946 289.989 636.419 288.516C637.891 287.042 638.719 285.043 638.721 282.959V205.465C638.719 203.38 637.891 201.382 636.419 199.908C634.946 198.434 632.95 197.605 630.868 197.603H500.73Z" fill="#E6E6E6"/>
<path d="M730.46 161.41C725.599 161.41 720.847 159.967 716.805 157.263C712.764 154.56 709.614 150.717 707.754 146.221C705.893 141.726 705.407 136.779 706.355 132.006C707.303 127.233 709.644 122.849 713.081 119.409C716.518 115.968 720.898 113.624 725.665 112.675C730.432 111.726 735.374 112.213 739.865 114.075C744.356 115.937 748.194 119.091 750.894 123.137C753.595 127.183 755.036 131.94 755.036 136.806C755.036 143.331 752.447 149.589 747.838 154.203C743.229 158.817 736.978 161.41 730.46 161.41V161.41ZM730.46 115.483C726.247 115.483 722.129 116.733 718.626 119.076C715.123 121.419 712.393 124.75 710.781 128.646C709.169 132.542 708.747 136.83 709.569 140.966C710.391 145.102 712.419 148.902 715.398 151.884C718.377 154.866 722.172 156.897 726.304 157.719C730.436 158.542 734.719 158.12 738.611 156.506C742.503 154.892 745.829 152.159 748.17 148.653C750.51 145.146 751.759 141.023 751.759 136.806V136.806C751.753 131.153 749.507 125.733 745.514 121.736C741.521 117.738 736.107 115.489 730.46 115.483V115.483Z" fill="#CCCCCC"/>
<path d="M726.351 141.952C727.353 142.546 728.492 142.87 729.655 142.894C732.251 142.894 733.054 141.239 733.03 140C733.008 137.908 731.124 137.012 729.175 137.012H728.049V135.495H729.176C730.644 135.495 732.504 134.738 732.504 132.968C732.504 131.773 731.745 130.716 729.886 130.716C728.816 130.746 727.779 131.09 726.904 131.706L726.376 130.235C727.536 129.478 728.892 129.078 730.276 129.085C733.214 129.085 734.545 130.831 734.545 132.647C734.53 133.453 734.253 134.232 733.756 134.866C733.258 135.501 732.568 135.955 731.79 136.162V136.208C732.712 136.342 733.556 136.803 734.167 137.507C734.778 138.211 735.115 139.112 735.118 140.045C735.118 142.434 733.259 144.526 729.68 144.526C728.319 144.544 726.98 144.194 725.801 143.514L726.351 141.952Z" fill="#CCCCCC"/>
<path d="M694.145 271.422C694.723 271.442 695.295 271.287 695.784 270.977C696.274 270.668 696.659 270.218 696.89 269.687C697.121 269.155 697.187 268.566 697.079 267.997C696.971 267.427 696.694 266.903 696.284 266.493C695.875 266.083 695.352 265.806 694.783 265.698C694.214 265.59 693.626 265.656 693.095 265.887C692.564 266.118 692.114 266.504 691.805 266.994C691.496 267.484 691.341 268.056 691.361 268.635C691.387 269.366 691.688 270.06 692.205 270.577C692.721 271.095 693.415 271.396 694.145 271.422V271.422Z" fill="#E6E6E6"/>
<path d="M762.392 270.176H709.961C709.527 270.176 709.11 270.003 708.803 269.695C708.496 269.388 708.323 268.971 708.323 268.536C708.323 268.1 708.496 267.683 708.803 267.376C709.11 267.068 709.527 266.895 709.961 266.895H762.392C762.607 266.895 762.82 266.937 763.019 267.019C763.218 267.102 763.399 267.222 763.551 267.374C763.703 267.527 763.824 267.707 763.907 267.906C763.989 268.105 764.032 268.318 764.032 268.534C764.032 268.749 763.99 268.963 763.908 269.162C763.826 269.361 763.705 269.542 763.553 269.694C763.401 269.847 763.221 269.968 763.022 270.05C762.824 270.133 762.611 270.176 762.395 270.176H762.392Z" fill="#E6E6E6"/>
<path d="M776.457 248.143H684.462C682.38 248.14 680.384 247.311 678.912 245.838C677.44 244.364 676.611 242.365 676.609 240.281V203.219C676.611 201.134 677.44 199.136 678.912 197.662C680.384 196.188 682.38 195.359 684.462 195.357H776.457C778.539 195.359 780.535 196.188 782.007 197.662C783.48 199.136 784.308 201.134 784.31 203.219V240.281C784.308 242.365 783.48 244.364 782.007 245.838C780.535 247.311 778.539 248.14 776.457 248.143V248.143ZM684.462 197.603C682.975 197.605 681.549 198.197 680.498 199.25C679.446 200.302 678.855 201.73 678.853 203.219V240.281C678.855 241.77 679.446 243.197 680.498 244.25C681.549 245.303 682.975 245.895 684.462 245.897H776.457C777.944 245.895 779.37 245.303 780.422 244.25C781.473 243.197 782.065 241.77 782.066 240.281V203.219C782.065 201.73 781.473 200.302 780.422 199.25C779.37 198.197 777.944 197.605 776.457 197.603H684.462Z" fill="#E6E6E6"/>
<path d="M781.087 197.79L679.057 243.827L679.978 245.875L782.009 199.837L781.087 197.79Z" fill="#E6E6E6"/>
<path d="M680.405 197.219L679.47 199.26L780.935 245.869L781.871 243.828L680.405 197.219Z" fill="#E6E6E6"/>
<path d="M852.041 223.265C851.978 223.135 851.898 223.013 851.802 222.905V222.905L839.513 210.603C839.361 210.451 839.181 210.329 838.982 210.247C838.783 210.164 838.57 210.121 838.355 210.121C838.139 210.121 837.926 210.163 837.727 210.246C837.528 210.328 837.347 210.449 837.195 210.602C837.043 210.754 836.922 210.935 836.84 211.134C836.757 211.333 836.715 211.547 836.715 211.762C836.715 211.978 836.758 212.191 836.841 212.39C836.923 212.589 837.044 212.77 837.197 212.923L846.688 222.424H804.767C804.332 222.424 803.916 222.597 803.608 222.905C803.301 223.212 803.128 223.63 803.128 224.065C803.128 224.5 803.301 224.917 803.608 225.224C803.916 225.532 804.332 225.705 804.767 225.705H846.688L838.016 234.387C837.863 234.539 837.742 234.72 837.659 234.919C837.576 235.118 837.534 235.331 837.533 235.547C837.533 235.763 837.575 235.976 837.658 236.176C837.74 236.375 837.861 236.556 838.013 236.709C838.166 236.861 838.347 236.982 838.546 237.064C838.745 237.147 838.958 237.189 839.174 237.189C839.389 237.189 839.602 237.146 839.801 237.063C840 236.98 840.181 236.859 840.333 236.706L851.801 225.226L851.802 225.224C852.052 224.97 852.211 224.64 852.255 224.285C852.298 223.931 852.223 223.572 852.041 223.265V223.265Z" fill="#CCCCCC"/>
<path d="M956.675 191.026H955.907V169.968C955.907 168.368 955.592 166.783 954.981 165.304C954.369 163.825 953.472 162.482 952.341 161.35C951.211 160.218 949.869 159.321 948.392 158.708C946.915 158.096 945.332 157.78 943.733 157.78H899.167C897.568 157.78 895.985 158.096 894.508 158.708C893.031 159.321 891.689 160.218 890.558 161.35C889.428 162.482 888.531 163.825 887.919 165.304C887.307 166.783 886.992 168.368 886.992 169.968V285.494C886.992 288.727 888.275 291.827 890.558 294.112C892.841 296.398 895.938 297.682 899.167 297.682H943.733C945.331 297.682 946.915 297.367 948.392 296.754C949.869 296.142 951.211 295.244 952.341 294.112C953.472 292.981 954.369 291.637 954.981 290.158C955.592 288.68 955.907 287.095 955.907 285.494V206.016H956.675V191.026Z" fill="#3F3D56"/>
<path d="M953.316 170.053V285.409C953.316 287.823 952.358 290.138 950.653 291.845C948.948 293.552 946.635 294.511 944.224 294.511H899.444C897.033 294.511 894.72 293.552 893.015 291.845C891.31 290.138 890.352 287.823 890.352 285.409V170.053C890.352 167.639 891.31 165.324 893.015 163.617C894.72 161.91 897.033 160.951 899.444 160.951H904.876C904.61 161.608 904.508 162.32 904.58 163.025C904.653 163.73 904.898 164.407 905.293 164.995C905.688 165.584 906.221 166.066 906.846 166.399C907.471 166.733 908.168 166.908 908.876 166.908H934.408C935.116 166.908 935.813 166.733 936.438 166.399C937.063 166.066 937.596 165.584 937.991 164.995C938.386 164.407 938.631 163.73 938.703 163.025C938.776 162.32 938.674 161.608 938.407 160.951H944.224C946.635 160.951 948.948 161.91 950.653 163.617C952.358 165.324 953.316 167.639 953.316 170.053V170.053Z" fill="white"/>
<path d="M366.408 303.326C365.943 302.738 365.618 302.051 365.459 301.318C365.299 300.585 365.309 299.826 365.487 299.097C369.74 281.263 369.74 262.678 365.486 244.844C365.309 244.115 365.299 243.356 365.459 242.623C365.618 241.89 365.943 241.203 366.408 240.615C366.862 240.034 367.443 239.566 368.106 239.244C368.769 238.922 369.497 238.756 370.234 238.759H415.7C416.862 238.761 417.986 239.176 418.87 239.93C419.755 240.683 420.344 241.727 420.532 242.875C423.498 262.158 423.498 281.783 420.532 301.066C420.344 302.214 419.755 303.258 418.87 304.011C417.986 304.765 416.862 305.18 415.7 305.182H370.234C369.497 305.185 368.769 305.019 368.106 304.697C367.443 304.375 366.862 303.907 366.408 303.326Z" fill="#F4E6E9"/>
<path d="M406.927 263.267H382.975C382.083 263.266 381.227 262.911 380.596 262.279C379.965 261.647 379.61 260.791 379.609 259.897V258.467C379.61 257.573 379.965 256.717 380.596 256.085C381.227 255.454 382.083 255.098 382.975 255.097H406.927C407.819 255.098 408.674 255.454 409.305 256.085C409.936 256.717 410.291 257.573 410.292 258.467V259.897C410.291 260.791 409.936 261.647 409.305 262.279C408.674 262.911 407.819 263.266 406.927 263.267Z" fill="white"/>
<path d="M406.927 277.359H382.975C382.083 277.358 381.227 277.003 380.596 276.371C379.965 275.739 379.61 274.883 379.609 273.99V272.559C379.61 271.665 379.965 270.809 380.596 270.177C381.227 269.546 382.083 269.19 382.975 269.189H406.927C407.819 269.19 408.674 269.546 409.305 270.177C409.936 270.809 410.291 271.665 410.292 272.559V273.99C410.291 274.883 409.936 275.739 409.305 276.371C408.674 277.003 407.819 277.358 406.927 277.359V277.359Z" fill="white"/>
<path d="M786.92 344.804C784.002 325.832 784.002 306.525 786.92 287.553C787.105 286.424 787.684 285.397 788.555 284.655C789.425 283.914 790.53 283.506 791.673 283.503H836.406C837.13 283.501 837.846 283.664 838.499 283.981C839.151 284.297 839.723 284.759 840.17 285.33C840.627 285.909 840.946 286.584 841.103 287.305C841.26 288.026 841.251 288.774 841.076 289.491C836.891 307.036 836.891 325.321 841.075 342.866C841.25 343.583 841.26 344.33 841.103 345.051C840.946 345.772 840.627 346.448 840.17 347.027C839.723 347.598 839.151 348.059 838.499 348.376C837.846 348.692 837.13 348.856 836.406 348.853H791.673C790.53 348.851 789.425 348.443 788.555 347.701C787.684 346.96 787.105 345.933 786.92 344.804V344.804Z" fill="#F4E6E9"/>
<path d="M823.457 312.605H799.983C799.091 312.604 798.235 312.248 797.604 311.617C796.973 310.985 796.618 310.129 796.617 309.235V307.919C796.618 307.025 796.973 306.169 797.604 305.537C798.235 304.906 799.091 304.55 799.983 304.549H823.457C824.349 304.55 825.205 304.906 825.836 305.537C826.467 306.169 826.822 307.025 826.823 307.919V309.235C826.822 310.129 826.467 310.985 825.836 311.617C825.205 312.248 824.349 312.604 823.457 312.605Z" fill="white"/>
<path d="M137.37 469.474C146.764 452.741 158.662 437.545 172.649 424.415C173.49 423.641 174.579 423.191 175.721 423.145C176.863 423.098 177.984 423.46 178.885 424.164L214.092 451.789C214.664 452.235 215.127 452.805 215.445 453.457C215.763 454.109 215.929 454.825 215.929 455.551C215.932 456.289 215.767 457.018 215.446 457.682C215.126 458.346 214.658 458.929 214.078 459.385C199.973 470.61 188.705 485.001 181.187 501.394C180.883 502.066 180.43 502.66 179.862 503.131C179.294 503.601 178.627 503.936 177.91 504.109C177.206 504.283 176.472 504.293 175.764 504.139C175.055 503.985 174.391 503.672 173.822 503.222L138.616 475.597C137.717 474.89 137.099 473.886 136.871 472.764C136.643 471.643 136.82 470.477 137.37 469.474V469.474Z" fill="#CCCCCC"/>
<path d="M186.18 465.1L167.705 450.604C167.003 450.052 166.549 449.244 166.441 448.357C166.334 447.47 166.582 446.577 167.132 445.873L167.943 444.837C168.494 444.135 169.301 443.68 170.187 443.573C171.073 443.465 171.965 443.714 172.668 444.264L191.143 458.761C191.845 459.313 192.299 460.121 192.407 461.007C192.514 461.894 192.266 462.787 191.716 463.491L190.905 464.527C190.354 465.229 189.547 465.684 188.661 465.792C187.775 465.899 186.883 465.651 186.18 465.1V465.1Z" fill="white"/>
<path d="M177.636 476.012L159.161 461.516C158.46 460.964 158.005 460.156 157.898 459.269C157.79 458.382 158.039 457.489 158.589 456.785L159.4 455.749C159.951 455.047 160.758 454.592 161.644 454.484C162.53 454.377 163.422 454.625 164.125 455.176L182.6 469.672C183.302 470.224 183.756 471.032 183.864 471.919C183.971 472.806 183.723 473.699 183.173 474.403L182.362 475.439C181.81 476.141 181.003 476.596 180.117 476.704C179.231 476.811 178.339 476.563 177.636 476.012V476.012Z" fill="white"/>
<path d="M153.618 621.839L165.969 627.899L195.196 583.095L176.969 574.151L153.618 621.839Z" fill="#FFB8B8"/>
<path d="M152.444 616.257L176.766 628.192L176.767 628.192C178.802 629.191 180.621 630.582 182.12 632.284C183.619 633.987 184.768 635.968 185.501 638.116C186.235 640.263 186.539 642.534 186.396 644.798C186.253 647.063 185.666 649.278 184.668 651.315L184.421 651.82L144.6 632.278L152.444 616.257Z" fill="#2F2E41"/>
<path d="M276.009 642.965L289.763 642.964L296.306 589.854L276.006 589.855L276.009 642.965Z" fill="#FFB8B8"/>
<path d="M272.5 633.977L299.587 633.976H299.588C301.855 633.976 304.099 634.423 306.193 635.291C308.288 636.16 310.191 637.432 311.794 639.037C313.397 640.642 314.668 642.547 315.536 644.643C316.403 646.74 316.849 648.987 316.849 651.256V651.818L272.501 651.819L272.5 633.977Z" fill="#2F2E41"/>
<path d="M246.465 276.435C261.683 276.435 274.019 264.085 274.019 248.85C274.019 233.616 261.683 221.266 246.465 221.266C231.247 221.266 218.91 233.616 218.91 248.85C218.91 264.085 231.247 276.435 246.465 276.435Z" fill="#FFB8B8"/>
<path d="M273.904 625.448C272.604 625.446 271.355 624.943 270.416 624.042C269.478 623.142 268.922 621.914 268.866 620.614L258.215 478.697C258.203 478.325 258.068 477.968 257.831 477.681C257.595 477.394 257.27 477.193 256.908 477.11C256.546 477.027 256.166 477.066 255.829 477.222C255.491 477.377 255.214 477.641 255.042 477.97L186.908 608.186C186.29 609.354 185.241 610.234 183.984 610.641C182.728 611.047 181.362 610.947 180.178 610.361L161.185 600.854C159.993 600.254 159.086 599.208 158.661 597.943C158.236 596.677 158.328 595.295 158.916 594.097L199.571 511.625L226.5 449.849C236.893 429.353 247.931 418.791 260.242 417.559C272.872 416.296 286.36 424.99 301.484 444.139L301.607 444.295L301.605 444.495L299.361 617.854C299.365 619.113 298.897 620.328 298.049 621.259C297.202 622.189 296.037 622.767 294.784 622.879L274.398 625.424C274.232 625.44 274.067 625.448 273.904 625.448Z" fill="#2F2E41"/>
<path d="M217.383 459.826C218.882 458.899 220.16 457.655 221.128 456.181C222.095 454.707 222.727 453.038 222.981 451.292C223.234 449.547 223.102 447.767 222.594 446.078C222.086 444.389 221.214 442.832 220.04 441.517L224.195 331.615L204.001 334.135L202.298 441.053C200.222 443.175 198.995 445.984 198.85 448.95C198.705 451.917 199.652 454.833 201.511 457.147C203.371 459.461 206.013 461.012 208.939 461.505C211.864 461.999 214.868 461.401 217.383 459.826V459.826Z" fill="#FFB8B8"/>
<path d="M230.157 351.046L203.038 347.961C202.267 347.873 201.523 347.62 200.858 347.218C200.193 346.817 199.622 346.277 199.185 345.634C198.747 344.992 198.453 344.263 198.322 343.497C198.191 342.731 198.227 341.945 198.426 341.194L205.428 314.871C205.898 310.921 207.915 307.32 211.034 304.856C214.153 302.392 218.121 301.267 222.068 301.728C226.015 302.189 229.618 304.197 232.087 307.314C234.557 310.43 235.691 314.399 235.241 318.351L236.168 345.487C236.194 346.264 236.053 347.038 235.754 347.755C235.454 348.473 235.004 349.117 234.434 349.644C233.863 350.172 233.186 350.57 232.448 350.812C231.71 351.054 230.928 351.134 230.157 351.046L230.157 351.046Z" fill="#2F2E41"/>
<path d="M346.974 281.862C346.837 282.468 346.747 283.084 346.706 283.704L298.513 311.537L286.799 304.786L274.311 321.153L293.888 335.121C295.47 336.25 297.374 336.834 299.316 336.787C301.257 336.739 303.131 336.063 304.656 334.859L354.352 295.611C356.594 296.442 359.037 296.57 361.354 295.977C363.671 295.385 365.753 294.1 367.323 292.294C368.893 290.489 369.877 288.247 370.143 285.868C370.409 283.489 369.946 281.085 368.814 278.976C367.683 276.866 365.936 275.152 363.808 274.061C361.679 272.97 359.269 272.553 356.898 272.867C354.527 273.18 352.308 274.209 350.535 275.815C348.763 277.422 347.521 279.532 346.974 281.862V281.862Z" fill="#FFB8B8"/>
<path d="M296.902 312.856L281.326 333.065C280.883 333.64 280.321 334.112 279.679 334.45C279.037 334.789 278.329 334.984 277.605 335.024C276.881 335.063 276.156 334.946 275.481 334.681C274.806 334.415 274.196 334.006 273.693 333.483L256.06 315.153C253.132 312.867 251.23 309.512 250.77 305.823C250.311 302.135 251.331 298.415 253.608 295.479C255.884 292.543 259.231 290.631 262.914 290.162C266.598 289.693 270.316 290.706 273.254 292.978L295.37 305.358C296.003 305.712 296.552 306.2 296.98 306.786C297.409 307.372 297.705 308.044 297.851 308.756C297.996 309.467 297.987 310.202 297.823 310.909C297.659 311.617 297.345 312.281 296.902 312.856H296.902Z" fill="#2F2E41"/>
<path d="M309.607 452.734L279.705 306.922C278.284 299.991 274.234 293.882 268.408 289.878C262.581 285.874 255.431 284.287 248.46 285.45L238.488 287.114C235.023 287.692 231.707 288.947 228.727 290.809C225.747 292.67 223.163 295.1 221.122 297.961C217.878 302.507 215.693 307.723 214.728 313.225C213.762 318.727 214.04 324.376 215.542 329.756L232.048 388.894L219.799 452.25C219.662 452.953 219.695 453.678 219.895 454.366C220.095 455.053 220.457 455.682 220.949 456.201C221.442 456.72 222.052 457.113 222.727 457.348C223.403 457.583 224.124 457.653 224.832 457.552C230.965 456.674 241.073 455.42 252.683 454.737L258.973 430.449L261.531 454.351C275.793 453.951 291.275 454.651 304.047 457.973C304.786 458.17 305.563 458.176 306.304 457.989C307.046 457.801 307.727 457.428 308.284 456.903C308.841 456.378 309.255 455.72 309.487 454.99C309.718 454.261 309.76 453.484 309.607 452.734V452.734Z" fill="#F4E6E9"/>
<path d="M278.198 225.561C276.553 215.985 268.874 208.047 259.727 204.799C250.579 201.551 240.264 202.607 231.306 206.348C221.744 210.239 213.829 217.334 208.913 226.419C207.747 225.897 206.627 225.279 205.563 224.573C200.258 221.038 195.953 216.005 190.214 213.234C180.095 208.349 167.862 211.596 158.014 217.008C148.166 222.419 139.437 229.895 129.034 234.142C118.632 238.389 105.358 238.599 97.4817 230.58C95.5432 236.202 95.3847 242.286 97.0278 248.002C98.6708 253.717 102.035 258.786 106.662 262.517C111.289 266.247 116.953 268.458 122.882 268.847C128.81 269.236 134.714 267.784 139.788 264.69C151.185 257.74 157.481 243.168 170.265 239.331C177.339 237.209 184.935 238.918 192.085 240.77C196.297 241.983 200.594 242.873 204.941 243.432C204.992 251.285 207.947 258.842 213.235 264.643C222.057 273.941 235.904 276.419 248.712 276.268L248.98 275.996C245.058 270.119 241.963 261.971 246.281 256.38C250.543 250.86 258.95 251.673 265.477 249.231C274.569 245.83 279.842 235.137 278.198 225.561Z" fill="#2F2E41"/>
<path d="M327.014 652.5H136.294C135.996 652.5 135.711 652.382 135.5 652.171C135.29 651.96 135.172 651.675 135.172 651.377C135.172 651.079 135.29 650.793 135.5 650.583C135.711 650.372 135.996 650.254 136.294 650.254H327.014C327.311 650.254 327.597 650.372 327.807 650.583C328.018 650.793 328.136 651.079 328.136 651.377C328.136 651.675 328.018 651.96 327.807 652.171C327.597 652.382 327.311 652.5 327.014 652.5Z" fill="#CCCCCC"/>
</g>
</g>
<defs>
<clipPath id="clip0">
<rect width="893" height="712" fill="white"/>
</clipPath>
<clipPath id="clip1">
<rect width="1047" height="593" fill="white" transform="translate(96 59.5)"/>
</clipPath>
</defs>
</svg>
