<svg width="20" height="20" viewBox="0 0 20 20" fill="none" xmlns="http://www.w3.org/2000/svg">
<g clip-path="url(#clip0)">
<path d="M17.9437 3.93126L14.1937 0.18126C14.0758 0.0642678 13.9161 -0.000927527 13.75 9.97263e-06H3.75C2.71445 9.97263e-06 1.875 0.839463 1.875 1.87501V18.125C1.875 19.1606 2.71445 20 3.75 20H16.25C17.2855 20 18.125 19.1606 18.125 18.125V4.37501C18.126 4.20888 18.0607 4.04923 17.9437 3.93126ZM16.875 18.125C16.875 18.4702 16.5952 18.75 16.25 18.75H3.75C3.4048 18.75 3.125 18.4702 3.125 18.125V1.87501C3.125 1.52981 3.4048 1.25001 3.75 1.25001H13.125V3.75001C13.125 4.44036 13.6846 5.00001 14.375 5.00001H16.875V18.125Z" fill="#B5B6CD"/>
</g>
<defs>
<clipPath id="clip0">
<rect width="20" height="20" fill="white"/>
</clipPath>
</defs>
</svg>
