<svg width="48" height="42" viewBox="0 0 48 42" fill="none" xmlns="http://www.w3.org/2000/svg">
<path d="M48 20.4129C48 21.0154 47.5117 21.504 46.909 21.504H43.313V40.4178C43.313 41.0203 42.8247 41.5088 42.222 41.5088H29.5364C28.9337 41.5088 28.4453 41.0203 28.4453 40.4178V21.504H20.5692C19.9665 21.504 19.4781 21.0154 19.4781 20.4129C19.4781 20.1589 19.5684 19.9283 19.714 19.743L16.3256 16.911C16.2935 16.884 16.2627 16.8552 16.2337 16.8246C16.1759 16.7637 16.1091 16.7343 16.0293 16.7343C15.9943 16.7343 15.8169 16.7434 15.753 16.9283C15.7495 16.9381 15.746 16.9479 15.7423 16.9575L13.0251 24.1258C12.9295 24.4141 12.9751 24.7206 13.1519 24.9688C13.3308 25.2204 13.6108 25.3646 13.9196 25.3646H18.8603C20.4664 25.3646 21.854 26.5628 22.0877 28.1516L23.8792 38.9411C23.9851 39.659 23.7797 40.3661 23.3184 40.9005C22.8571 41.4349 22.1874 41.7414 21.4815 41.7414C20.2949 41.7414 19.2887 40.8924 19.089 39.7228L17.548 31.5821C17.4557 31.042 17.0082 30.6643 16.4801 30.6643H13.2466V40.418C13.2466 41.0205 12.7582 41.509 12.1555 41.509H2.80688C2.20418 41.509 1.71582 41.0205 1.71582 40.418V30.3998L0.00939325 17.3564C-0.0687269 16.7589 0.352205 16.2112 0.94989 16.1331C1.54736 16.0548 2.09507 16.4761 2.17319 17.0734L3.6961 28.7142H5.57709C5.41648 28.334 5.32745 27.9164 5.32745 27.4784C5.32745 27.1325 5.38353 26.7906 5.49395 26.4624L10.1039 13.426C10.5351 12.1245 11.5395 11.1267 12.7862 10.6686C11.4889 9.58803 10.6617 7.96148 10.6617 6.14507C10.6617 2.89938 13.3022 0.258789 16.5479 0.258789C19.7936 0.258789 22.4344 2.89938 22.4344 6.14507C22.4344 8.66674 20.84 10.8225 18.6068 11.6591L22.7635 15.2984L28.5472 15.7344C28.6529 15.7425 28.7569 15.7659 28.8558 15.8036C29.7494 16.1462 30.3499 17.0195 30.3499 17.9766C30.3499 18.478 30.1893 18.9417 29.9189 19.3221H33.0206C32.6064 19.1671 32.3101 18.7711 32.3101 18.303C32.3101 17.7005 32.7985 17.2119 33.4012 17.2119H41.2103L43.3089 9.60462C43.4693 9.02352 44.0698 8.68267 44.6509 8.84306C45.2316 9.00322 45.5728 9.60396 45.4124 10.1848L43.0929 18.593C42.9979 18.9365 42.7441 19.2014 42.4249 19.3218H46.9092C47.5114 19.3218 48 19.8104 48 20.4129Z" fill="#1F6FFF"/>
</svg>
