<svg width="453" height="453" viewBox="0 0 453 453" fill="none" xmlns="http://www.w3.org/2000/svg">
<path d="M51.6845 240.508H296.963C304.791 240.508 311.119 234.166 311.119 226.351C311.119 218.537 304.791 212.195 296.963 212.195H52.5693L103.78 160.985C109.308 155.457 109.308 146.496 103.78 140.968C98.2515 135.44 89.2906 135.44 83.7626 140.968L0.148682 226.79L83.7626 312.612C86.5301 315.38 90.147 316.76 93.771 316.76C97.395 316.76 101.012 315.38 103.78 312.612C109.308 307.084 109.308 298.124 103.78 292.596L51.6845 240.508ZM424.539 0H183.882C168.24 0 155.57 12.6769 155.57 28.3125V155.719H184.066V45.576C184.066 36.1197 191.739 28.447 201.195 28.447H406.779C416.242 28.447 423.908 36.1197 423.908 45.576L424.354 407.573C424.354 417.029 416.688 424.702 407.225 424.702H201.203C191.746 424.702 184.074 417.029 184.074 407.573V296.814L155.577 296.849V424.688C155.577 440.323 168.247 453 183.89 453H424.539C440.182 453 452.858 440.323 452.858 424.688V28.3125C452.852 12.6769 440.175 0 424.539 0H424.539Z" fill="#B5B6CD"/>
</svg>
