<svg width="112" height="112" viewBox="0 0 112 112" fill="none" xmlns="http://www.w3.org/2000/svg">
<path d="M108.417 1.29444H48.8792C46.8984 1.29444 45.2964 2.9015 45.2964 4.87932V30.1648L47.8869 27.136C49.117 25.6961 50.7387 24.8081 52.4623 24.4371V8.46282H104.834V55.272H52.4625V47.4362L50.849 49.323C49.439 50.9683 47.4486 51.9892 45.2964 52.1904V58.8557C45.2964 60.8335 46.8984 62.4385 48.8792 62.4385H68.2155L58.3918 107.038C57.9517 109.038 59.2157 111.016 61.2173 111.458C63.2009 111.893 65.1954 110.633 65.6314 108.635L75.8059 62.4388H81.7205L91.895 108.635C92.2763 110.365 93.8104 111.545 95.5117 111.543C95.7758 111.543 96.0459 111.516 96.3132 111.458C98.3148 111.016 99.5786 109.039 99.1346 107.038L89.3119 62.4385H108.417C110.396 62.4385 112 60.8335 112 58.8557V4.87932C112 2.9015 110.396 1.29444 108.417 1.29444Z" fill="#1F6FFF"/>
<path d="M79.9567 22.2261C79.6743 21.5143 78.8738 21.1648 78.1625 21.4466L57.0537 28.8971C55.1164 27.3972 52.3213 27.6652 50.7058 29.5441L44.0077 37.3661L38.0685 32.2751C38.1076 32.6955 38.1967 33.1041 38.1967 33.5355V44.5874L41.501 47.4186C43.4619 49.098 46.3952 48.8385 48.0347 46.9156L56.0087 37.5911L62.4397 33.8289L79.3642 23.9267C79.9494 23.5894 80.2087 22.8685 79.9567 22.2261Z" fill="#1F6FFF"/>
<path d="M25.1582 24.208H21.1804C18.1347 24.208 15.4566 25.6883 13.7543 27.9446L1.54412 39.1863C-0.358402 40.881 -0.530963 43.8166 1.18229 45.7306L11.1442 56.8498C12.8425 58.7514 15.7825 58.9196 17.6848 57.2104C19.5921 55.5011 19.7532 52.5733 18.0441 50.6682L11.1776 43.0005L20.9307 34.2731L15.2504 41.9905L20.8069 48.1942C23.8773 51.6253 23.5878 56.8971 20.1583 59.9698C17.8168 62.0689 14.6215 62.5614 11.8513 61.5934C11.8513 61.5934 11.8944 83.0283 11.8944 105.984C11.8944 109.054 14.383 111.543 17.4536 111.543C20.521 111.543 23.0129 109.054 23.0129 105.984C23.0129 83.0354 23.0129 96.131 23.0129 72.8513H26.7211C26.7211 96.1141 26.7211 83.0283 26.7211 105.984C26.7211 107.587 26.2742 109.071 25.5615 110.385C26.4943 111.102 27.6551 111.543 28.9202 111.543C31.9925 111.543 34.4811 109.054 34.4811 105.984C34.4811 83.0354 34.4882 92.6555 34.4882 33.5352C34.4887 28.3838 30.3126 24.208 25.1582 24.208Z" fill="#1F6FFF"/>
<path d="M18.2155 20.8717C19.702 21.6443 21.3708 22.1238 23.1635 22.1238C24.9607 22.1238 26.6296 21.6443 28.1204 20.8703C31.6 19.0676 33.9984 15.4786 33.9984 11.2897C33.9984 5.30591 29.1475 0.456577 23.1632 0.456577C17.1799 0.456577 12.3301 5.30591 12.3301 11.2897C12.3303 15.4808 14.7313 19.0712 18.2155 20.8717Z" fill="#1F6FFF"/>
</svg>
